<?xml version="1.0" encoding="UTF-8" standalone="no"?>
<!-- Created with Inkscape (http://www.inkscape.org/) -->

<svg
   version="1.1"
   id="svg1"
   width="126.52734"
   height="13.929688"
   viewBox="0 0 126.52734 13.929688"
   sodipodi:docname="main.pdf"
   xmlns:inkscape="http://www.inkscape.org/namespaces/inkscape"
   xmlns:sodipodi="http://sodipodi.sourceforge.net/DTD/sodipodi-0.dtd"
   xmlns="http://www.w3.org/2000/svg"
   xmlns:svg="http://www.w3.org/2000/svg">
  <defs
     id="defs1" />
  <sodipodi:namedview
     id="namedview1"
     pagecolor="#505050"
     bordercolor="#eeeeee"
     borderopacity="1"
     inkscape:showpageshadow="0"
     inkscape:pageopacity="0"
     inkscape:pagecheckerboard="0"
     inkscape:deskcolor="#505050">
    <inkscape:page
       x="1.0012156e-05"
       y="7.6076317e-06"
       inkscape:label="9"
       id="page1"
       width="126.52734"
       height="13.929688"
       margin="0"
       bleed="0" />
  </sodipodi:namedview>
  <g
     id="g1"
     inkscape:groupmode="layer"
     inkscape:label="9"
     transform="translate(-337.81641,-233.58594)">
    <path
       id="path94"
       d="m 341.94643,246.94109 -2.54091,-5.63336 2.54091,-5.6481 h -0.63138 l -2.80271,5.6481 2.80271,5.63336 z m 0,0"
       style="fill:#000000;fill-opacity:1;fill-rule:nonzero;stroke:none;stroke-width:1.28594" />
    <path
       id="path95"
       d="m 346.79726,239.87727 c 0,1.13552 -1.37056,1.54844 -2.37153,1.68116 0.462,-1.76964 1.17037,-2.15306 1.72474,-2.15306 0.4774,0 0.64679,0.11797 0.64679,0.4719 z m -2.46392,2.15306 c 3.41867,-0.64887 3.35709,-1.60742 3.35709,-2.07932 0,-0.32443 -0.2926,-0.92907 -1.23196,-0.92907 -2.27913,0 -3.21849,2.12357 -3.21849,3.71625 0,1.07653 0.52359,1.91711 1.60154,1.91711 0.87778,0 1.67854,-0.44241 2.44852,-1.40096 -0.0616,-0.13273 -0.1386,-0.19172 -0.29258,-0.19172 -0.75458,0.72261 -1.04718,0.82583 -1.67855,0.82583 -0.60058,0 -1.00097,-0.29494 -1.00097,-1.43045 0,-0.0737 0,-0.32443 0.0154,-0.42767 z m 5.73246,2.62497 h 0.20018 c 1.27816,0 2.04813,-0.67836 2.04813,-1.60742 0,-0.58988 -0.35419,-1.16502 -1.55534,-1.93186 -0.40039,-0.2507 -0.52358,-0.48665 -0.52358,-0.79634 0,-0.44241 0.26178,-0.88482 0.83158,-0.88482 0.32338,0 0.53896,0.10323 0.58517,0.36868 0.0308,0.29494 0.26179,0.64887 0.60058,0.64887 0.36959,0 0.46197,-0.23595 0.46197,-0.42767 0,-0.45715 -0.67756,-1.0028 -1.47834,-1.0028 -1.13956,0 -1.83254,0.79634 -1.83254,1.56319 0,0.50139 0.27719,1.04704 1.13956,1.59267 0.69298,0.45716 0.78537,0.87008 0.78537,1.13553 0,0.67836 -0.52357,0.91431 -1.10876,0.91431 -0.33879,0 -0.52357,-0.059 -0.55437,-0.33919 -0.0462,-0.28018 -0.231,-0.66361 -0.61598,-0.66361 -0.38499,0 -0.49278,0.30969 -0.49278,0.44241 0,0.47191 0.60057,0.92906 1.50915,0.98805 z m 4.23484,-1.32723 c -0.40037,0 -0.69297,0.26544 -0.69297,0.61937 0,0.39818 0.33878,0.51615 0.58517,0.54565 0.24639,0.0294 0.46198,0.10322 0.46198,0.39816 0,0.26545 -0.46198,0.84058 -1.13955,1.0028 0,0.11797 0.0154,0.20645 0.10776,0.29494 0.78536,-0.13272 1.55534,-0.73735 1.55534,-1.62217 0,-0.7521 -0.35419,-1.23875 -0.87777,-1.23875 z m 5.39367,-2.83143 -0.75457,3.12637 c -0.0616,0.2507 -0.1694,0.56038 -0.1694,0.69311 0,0.20646 0.12312,0.33918 0.53898,0.33918 0.49279,0 0.47738,-0.56039 0.60058,-1.03229 l 0.52358,-2.02034 c 1.01635,-1.41571 1.75553,-1.82862 2.17132,-1.82862 0.26179,0 0.33879,0.0884 0.33879,0.45715 0,0.14747 0,0.45716 -0.0923,0.84058 l -0.63138,2.55123 c -0.0616,0.2507 -0.1694,0.56038 -0.1694,0.69311 0,0.20646 0.10775,0.33918 0.53898,0.33918 0.49279,0 0.47738,-0.56039 0.60058,-1.03229 l 0.49278,-1.9761 c 1.10876,-1.48944 1.61695,-1.87286 2.04814,-1.87286 0.24639,0 0.36959,0.0884 0.36959,0.45715 0,0.14747 -0.0154,0.5014 -0.10776,0.89957 l -0.52357,1.96135 c -0.12313,0.51615 -0.23099,1.03229 -0.23099,1.13552 0,0.25069 0.23099,0.42766 0.41578,0.42766 0.76997,0 1.49374,-0.36867 1.94032,-1.40096 -0.0308,-0.11798 -0.12313,-0.17697 -0.29257,-0.17697 -0.308,0.48665 -0.67759,0.81108 -0.90858,0.81108 -0.0616,0 -0.0923,-0.0737 -0.0923,-0.13271 0,-0.0443 0.0308,-0.36868 0.0616,-0.5014 l 0.61598,-2.2268 c 0.077,-0.29494 0.13859,-0.67837 0.13859,-0.91432 0,-0.79634 -0.40037,-1.09128 -0.80076,-1.09128 -0.93937,0 -1.64775,0.76685 -2.41772,1.68116 0.0462,-0.20646 0.0616,-0.42766 0.0616,-0.58988 0,-0.88482 -0.40039,-1.09128 -0.75458,-1.09128 -0.95476,0 -1.80173,0.66362 -2.5717,1.60743 h -0.0308 l 0.0308,-0.11797 c 0.12312,-0.48666 0.29259,-0.97331 0.29259,-1.19452 0,-0.17696 -0.0923,-0.26544 -0.2618,-0.26544 -0.43118,0 -1.01636,0.0884 -1.63234,0.16222 -0.0924,0.10322 -0.0616,0.25069 0.0154,0.35393 l 0.52358,0.0443 c 0.15398,0.0147 0.231,0.11798 0.231,0.25071 0,0.10322 -0.0308,0.28019 -0.10777,0.63411 z m 10.07509,4.15866 h 0.20019 c 1.27816,0 2.04814,-0.67836 2.04814,-1.60742 0,-0.58988 -0.35421,-1.16502 -1.55536,-1.93186 -0.40039,-0.2507 -0.52359,-0.48665 -0.52359,-0.79634 0,-0.44241 0.2618,-0.88482 0.83158,-0.88482 0.32339,0 0.53898,0.10323 0.58518,0.36868 0.0307,0.29494 0.2618,0.64887 0.60058,0.64887 0.36958,0 0.46198,-0.23595 0.46198,-0.42767 0,-0.45715 -0.67757,-1.0028 -1.47835,-1.0028 -1.13955,0 -1.83253,0.79634 -1.83253,1.56319 0,0.50139 0.27719,1.04704 1.13956,1.59267 0.69297,0.45716 0.78538,0.87008 0.78538,1.13553 0,0.67836 -0.52358,0.91431 -1.10876,0.91431 -0.3388,0 -0.52358,-0.059 -0.55439,-0.33919 -0.0462,-0.28018 -0.23099,-0.66361 -0.61598,-0.66361 -0.38498,0 -0.49278,0.30969 -0.49278,0.44241 0,0.47191 0.60058,0.92906 1.50915,0.98805 z m 7.19154,-0.92906 c -0.58517,2.12357 -1.24735,3.28858 -2.38691,3.28858 -0.81618,0 -0.52359,-0.66361 -1.18577,-0.66361 -0.13858,0 -0.49278,0.17696 -0.49278,0.48664 0,0.5309 1.03177,0.63413 1.52455,0.63413 0.46198,0 1.32435,-0.14747 1.92493,-0.7521 0.73917,-0.76685 1.15496,-1.23875 1.67855,-3.46554 l 0.95476,-4.12916 c -0.32338,0 -0.66218,0.0294 -0.92396,-0.0295 -0.3542,-0.0443 -0.52358,-0.0737 -1.04717,-0.0737 -1.40136,0 -3.48028,1.79913 -3.48028,3.86371 0,0.70786 0.2926,1.76964 1.38595,1.76964 0.69297,0 1.49376,-0.6931 2.27913,-1.81387 z m 0.43119,-1.9466 c -0.64678,1.12077 -1.70933,2.18255 -2.12512,2.18255 -0.44658,0 -0.69298,-0.57513 -0.69298,-1.26824 0,-1.32723 1.26276,-3.28858 2.47931,-3.28858 0.2618,0 0.55438,0.0884 0.80077,0.23595 0,0 -0.26179,1.35672 -0.46198,2.13832 z m 2.75265,1.54843 c -0.40038,0 -0.69298,0.26544 -0.69298,0.61937 0,0.39818 0.33879,0.51615 0.58518,0.54565 0.2464,0.0294 0.462,0.10322 0.462,0.39816 0,0.26545 -0.462,0.84058 -1.13957,1.0028 0,0.11797 0.0154,0.20645 0.10776,0.29494 0.78538,-0.13272 1.55534,-0.73735 1.55534,-1.62217 0,-0.7521 -0.35419,-1.23875 -0.87776,-1.23875 z m 5.40522,-2.83143 -0.75458,3.12637 c -0.0616,0.2507 -0.1694,0.56038 -0.1694,0.69311 0,0.20646 0.12313,0.33918 0.53899,0.33918 0.49278,0 0.47738,-0.56039 0.60057,-1.03229 l 0.52359,-2.02034 c 1.01636,-1.41571 1.75553,-1.82862 2.17132,-1.82862 0.26179,0 0.33878,0.0884 0.33878,0.45715 0,0.14747 0,0.45716 -0.0924,0.84058 l -0.63138,2.55123 c -0.0616,0.2507 -0.16938,0.56038 -0.16938,0.69311 0,0.20646 0.10775,0.33918 0.53897,0.33918 0.49278,0 0.47738,-0.56039 0.60058,-1.03229 l 0.49278,-1.9761 c 1.10876,-1.48944 1.61694,-1.87286 2.04814,-1.87286 0.24639,0 0.36958,0.0884 0.36958,0.45715 0,0.14747 -0.0154,0.5014 -0.10775,0.89957 l -0.52359,1.96135 c -0.12313,0.51615 -0.23099,1.03229 -0.23099,1.13552 0,0.25069 0.23099,0.42766 0.41578,0.42766 0.76998,0 1.49375,-0.36867 1.94034,-1.40096 -0.0308,-0.11798 -0.12313,-0.17697 -0.29259,-0.17697 -0.308,0.48665 -0.67759,0.81108 -0.90857,0.81108 -0.0616,0 -0.0923,-0.0737 -0.0923,-0.13271 0,-0.0443 0.0307,-0.36868 0.0616,-0.5014 l 0.61598,-2.2268 c 0.077,-0.29494 0.13858,-0.67837 0.13858,-0.91432 0,-0.79634 -0.40038,-1.09128 -0.80077,-1.09128 -0.93936,0 -1.64774,0.76685 -2.41771,1.68116 0.0461,-0.20646 0.0616,-0.42766 0.0616,-0.58988 0,-0.88482 -0.40038,-1.09128 -0.75458,-1.09128 -0.95475,0 -1.80173,0.66362 -2.5717,1.60743 h -0.0308 l 0.0308,-0.11797 c 0.12313,-0.48666 0.29259,-0.97331 0.29259,-1.19452 0,-0.17696 -0.0923,-0.26544 -0.26179,-0.26544 -0.43119,0 -1.01637,0.0884 -1.63234,0.16222 -0.0924,0.10322 -0.0616,0.25069 0.0154,0.35393 l 0.52358,0.0443 c 0.15399,0.0147 0.231,0.11798 0.231,0.25071 0,0.10322 -0.0308,0.28019 -0.10776,0.63411 z m 9.84025,1.88762 c 0,-1.12077 0.50818,-2.9494 1.89413,-2.9494 0.40038,0 0.60058,0.19172 0.78537,0.54564 0.1694,0.32444 0.21559,0.78159 0.21559,1.15027 0,0.5014 -0.077,1.59268 -0.56978,2.28578 -0.36959,0.54564 -0.89317,0.76684 -1.38595,0.76684 -0.38499,0 -0.93936,-0.4719 -0.93936,-1.79913 z m -1.09336,0.10323 c 0,0.66361 0.16938,2.16781 1.83253,2.16781 0.43118,0 0.83157,-0.059 1.21655,-0.2507 1.12417,-0.54564 2.01734,-1.87287 2.01734,-3.34757 0,-0.91431 -0.231,-2.03509 -1.84794,-2.03509 -2.18673,0 -3.21848,1.96136 -3.21848,3.46555 z m 7.96921,2.16781 c 0.93936,0 1.78633,-0.66361 2.41771,-1.48944 -0.0462,-0.11798 -0.16939,-0.22121 -0.29258,-0.22121 -0.50818,0.54564 -1.03177,0.95856 -1.72474,0.95856 -0.2156,0 -0.47738,-0.0443 -0.64678,-0.2802 -0.20019,-0.23595 -0.33879,-0.48665 -0.33879,-1.23875 0,-1.87286 0.92397,-2.97889 1.92493,-2.97889 0.1848,0 0.55439,0.059 0.55439,0.4719 0,0.0884 -0.0308,0.17696 -0.0616,0.2507 -0.0462,0.0443 -0.077,0.17697 -0.077,0.2507 0,0.20646 0.1386,0.41291 0.35419,0.41291 0.35419,0 0.69297,-0.25069 0.69297,-0.57512 0,-0.48666 -0.0462,-1.19452 -1.47834,-1.19452 -0.5236,0 -1.37056,0.32444 -1.90954,0.88482 -0.63137,0.64887 -1.06256,1.62217 -1.06256,2.74295 0,0.41291 0.0923,0.98805 0.38499,1.40097 0.27719,0.35392 0.72377,0.60462 1.26275,0.60462 z m 3.91531,-1.03229 c -0.077,0.2507 -0.16938,0.56038 -0.16938,0.69311 0,0.20646 0.10775,0.33918 0.52357,0.33918 0.50818,0 0.50818,-0.57513 0.61598,-1.03229 l 0.46199,-2.03509 c 0.10775,-0.0294 0.20019,-0.0294 0.29258,-0.0294 0.10776,0 0.20021,0.0737 0.26179,0.19171 0.23099,0.39817 0.38499,1.04703 0.64678,1.60742 0.43119,0.89957 0.75458,1.29774 1.29356,1.29774 0.44658,0 0.89316,-0.39817 1.32436,-1.09128 -0.0924,-0.10323 -0.15401,-0.17697 -0.2926,-0.17697 -0.26179,0.36868 -0.53898,0.60464 -0.67758,0.60464 -0.26178,0 -0.33879,-0.22121 -0.47738,-0.47191 -0.36959,-0.69311 -0.53898,-1.17976 -0.72378,-1.53369 -0.20019,-0.38342 -0.27719,-0.56038 -0.70837,-0.67836 v -0.0443 l 0.67757,-0.57513 c 0.63138,-0.56039 0.98557,-0.7816 1.24736,-0.7816 0.3388,0 0.2926,0.17697 0.73918,0.17697 0.18479,0 0.60057,-0.23595 0.60057,-0.61938 0,-0.35392 -0.29258,-0.44241 -0.64677,-0.44241 -0.41579,0 -1.21655,0.47191 -2.15593,1.283 l -0.52358,0.41291 c -0.2156,0.19171 -0.49279,0.39817 -0.76997,0.39817 l 0.93937,-3.90795 c 0.20018,-0.81109 0.32338,-1.31249 0.32338,-1.31249 0,-0.0884 -0.0308,-0.11798 -0.15398,-0.11798 -0.35419,0.11798 -1.29357,0.2802 -1.83254,0.32444 l -0.0308,0.29494 c 0,0.0443 0.0154,0.059 0.0616,0.059 l 0.40039,0.0294 c 0.1694,0 0.2772,0.0737 0.2772,0.35393 0,0.13273 -0.0308,0.35393 -0.0924,0.61937 z m 7.94227,1.03229 h 0.20019 c 1.27816,0 2.04813,-0.67836 2.04813,-1.60742 0,-0.58988 -0.35419,-1.16502 -1.55534,-1.93186 -0.40039,-0.2507 -0.52359,-0.48665 -0.52359,-0.79634 0,-0.44241 0.2618,-0.88482 0.83158,-0.88482 0.32339,0 0.53898,0.10323 0.58518,0.36868 0.0308,0.29494 0.26179,0.64887 0.60058,0.64887 0.36958,0 0.46198,-0.23595 0.46198,-0.42767 0,-0.45715 -0.67757,-1.0028 -1.47835,-1.0028 -1.13957,0 -1.83254,0.79634 -1.83254,1.56319 0,0.50139 0.2772,1.04704 1.13957,1.59267 0.69297,0.45716 0.78536,0.87008 0.78536,1.13553 0,0.67836 -0.52357,0.91431 -1.10876,0.91431 -0.33878,0 -0.52357,-0.059 -0.55437,-0.33919 -0.0462,-0.28018 -0.23099,-0.66361 -0.61598,-0.66361 -0.38499,0 -0.49278,0.30969 -0.49278,0.44241 0,0.47191 0.60057,0.92906 1.50914,0.98805 z m 4.2233,-1.32723 c -0.40038,0 -0.69297,0.26544 -0.69297,0.61937 0,0.39818 0.33879,0.51615 0.58518,0.54565 0.24639,0.0294 0.46199,0.10322 0.46199,0.39816 0,0.26545 -0.46199,0.84058 -1.13957,1.0028 0,0.11797 0.0154,0.20645 0.10776,0.29494 0.78538,-0.13272 1.55534,-0.73735 1.55534,-1.62217 0,-0.7521 -0.35419,-1.23875 -0.87777,-1.23875 z m 6.36769,-5.94304 -1.26277,6.17899 c -0.077,0.35393 -0.27719,0.53089 -0.81616,0.57514 l -0.40039,0.0443 c -0.0616,0.0443 -0.0924,0.25071 -0.0308,0.36868 0.58518,-0.0147 1.06257,-0.0294 1.57075,-0.0294 0.49278,0 1.07797,0.0147 1.66314,0.0294 0.0308,-0.059 0.077,-0.30969 0.0308,-0.36868 l -0.44659,-0.0443 c -0.50819,-0.0294 -0.64677,-0.19172 -0.56978,-0.57514 l 0.63138,-3.08212 -0.0308,0.16221 c 0.44658,0 0.76998,0.14747 0.97017,0.48666 l 1.53995,2.4775 c 0.0923,0.16221 0.13859,0.32443 0.13859,0.4719 0,0.14747 -0.0308,0.26545 -0.0616,0.36867 v 0.10323 c 0.2618,-0.0147 0.52359,-0.0294 0.89317,-0.0294 0.49278,0 0.70838,0.0147 1.29356,0.0294 l 0.0616,-0.0294 0.0307,-0.23595 c 0.0154,-0.059 -0.0307,-0.0884 -0.0923,-0.10324 l -0.077,-0.0147 c -0.35418,-0.0443 -0.61597,-0.17697 -0.86237,-0.56039 l -2.09432,-3.25909 c -0.0924,-0.13272 -0.10775,-0.2212 -0.0924,-0.30968 0.0308,-0.0884 0.0924,-0.17697 0.60057,-0.61938 l 2.14052,-1.88761 c 0.70839,-0.61938 1.20117,-0.69311 1.72474,-0.7521 0.0616,0 0.1386,-0.0443 0.154,-0.10323 l 0.0616,-0.23595 -0.0462,-0.0294 c -0.58517,0.0147 -0.72377,0.0294 -1.23195,0.0294 -0.50818,0 -0.86237,-0.0147 -1.44754,-0.0294 l -0.0462,0.0294 -0.0308,0.23595 c -0.0154,0.059 0.0308,0.10323 0.077,0.10323 l 0.24639,0.0147 c 0.21558,0.0294 0.30798,0.0884 0.30798,0.17696 0,0.11798 -0.15399,0.29494 -0.38499,0.5014 l -2.57171,2.21205 c -0.30798,0.28019 -0.61598,0.45715 -1.10876,0.48665 l 0.58519,-2.78718 c 0.077,-0.33919 0.26178,-0.51615 0.80076,-0.57514 l 0.41579,-0.0294 c 0.0461,-0.059 0.077,-0.2507 0.0154,-0.36867 -0.58519,0.0147 -1.06257,0.0294 -1.57076,0.0294 -0.49278,0 -1.07795,-0.0147 -1.66313,-0.0294 -0.0308,0.0443 -0.077,0.29494 -0.0308,0.36867 l 0.44658,0.0294 c 0.50819,0.0443 0.64678,0.20646 0.56979,0.57514 z m 0,0"
       style="fill:#000000;fill-opacity:1;fill-rule:nonzero;stroke:none;stroke-width:1.28594" />
    <path
       id="path96"
       d="m 434.50486,245.2673 0.43119,-1.45995 c 0.0923,-0.30969 0.1386,-0.53089 0.1386,-0.69311 0,-0.54563 -0.2772,-0.73735 -0.67758,-0.73735 -0.55437,0 -1.00097,0.19172 -1.98654,1.17976 l 0.0154,-0.0884 c 0.10776,-0.35392 0.23099,-0.70785 0.23099,-0.87006 0,-0.11798 -0.077,-0.19172 -0.21559,-0.19172 -0.35418,0 -0.86237,0.0737 -1.37055,0.11798 -0.077,0.0737 -0.0461,0.17696 0.0154,0.26544 l 0.41579,0.0295 c 0.12314,0 0.16939,0.0884 0.16939,0.17696 0,0.0884 -0.0154,0.20646 -0.0924,0.47191 l -0.58518,2.27104 c -0.0462,0.19171 -0.1386,0.41291 -0.1386,0.50139 0,0.16222 0.12314,0.25071 0.47739,0.25071 0.41579,0 0.40039,-0.39818 0.50818,-0.7521 l 0.38499,-1.51894 c 0.66217,-0.7521 1.24736,-1.28299 1.61695,-1.28299 0.23098,0 0.35418,0.0443 0.35418,0.32443 0,0.13273 -0.0308,0.30969 -0.1386,0.61937 l -0.41579,1.4747 c -0.10775,0.2802 -0.20019,0.66362 -0.20019,0.84059 0,0.17696 0.12314,0.29494 0.44658,0.29494 0.58519,0 1.06258,-0.30969 1.57076,-0.85533 -0.0308,-0.0737 -0.10776,-0.14747 -0.2464,-0.14747 -0.27719,0.28019 -0.60058,0.45715 -0.70838,0.45715 -0.077,0 -0.12313,-0.0443 -0.12313,-0.16221 0,-0.0737 0.0616,-0.2802 0.12313,-0.51615 z m 0,0"
       style="fill:#000000;fill-opacity:1;fill-rule:nonzero;stroke:none;stroke-width:1.28594" />
    <path
       id="path97"
       d="m 442.25849,246.94109 v -11.28146 h -0.73918 v 11.28146 z m 0,0"
       style="fill:#000000;fill-opacity:1;fill-rule:nonzero;stroke:none;stroke-width:1.28594" />
    <path
       id="path98"
       d="m 453.41926,236.67718 c -0.66219,-0.10324 -0.58518,-0.39818 -1.75555,-0.39818 -1.09336,0 -2.5255,0.70786 -2.80269,2.03509 -0.0154,0.14747 -0.0308,0.29494 -0.0308,0.41292 0,1.12077 1.00096,1.71065 1.92492,2.15306 0.60059,0.28019 1.07798,0.67836 1.07798,1.43046 0,0.14747 -0.0154,0.29494 -0.0462,0.4719 -0.21558,1.01754 -0.84696,1.41572 -1.80173,1.41572 -1.12415,0 -1.77094,-0.5309 -1.78634,-1.7844 l -0.40039,0.0443 c -0.0308,0.94381 -0.0616,1.35672 -0.16938,2.00559 0.76997,0 1.09336,0.19171 2.15591,0.19171 1.44756,0 2.8335,-1.03229 3.0953,-2.31528 0.0462,-0.16222 0.0616,-0.32443 0.0616,-0.4719 0,-1.10603 -0.90858,-1.66642 -1.78635,-2.06458 -0.43117,-0.17696 -1.38595,-0.70786 -1.38595,-1.57793 0,-0.0737 0.0154,-0.16222 0.0308,-0.2507 0.15399,-0.76684 0.83157,-1.26824 1.66315,-1.26824 1.20115,0 1.37055,0.73735 1.44754,1.56318 l 0.40039,0.0294 c 0,-0.60463 0.077,-0.94381 0.10776,-1.62217 z m 0,0"
       style="fill:#000000;fill-opacity:1;fill-rule:nonzero;stroke:none;stroke-width:1.28594" />
    <path
       id="path99"
       d="m 459.3211,235.78499 c 0,-0.20646 -0.18481,-0.44241 -0.4312,-0.44241 -0.29258,0 -1.37055,1.03229 -1.74014,1.23874 0,-0.69311 0.3542,-1.40097 0.3542,-1.82862 0,-0.25071 -0.1848,-0.42767 -0.44659,-0.42767 -0.26179,0 -0.43118,0.17696 -0.43118,0.42767 0,0.50139 0.32338,1.165 0.32338,1.82862 -0.41579,-0.23595 -1.44754,-1.28299 -1.72474,-1.28299 -0.23099,0 -0.43117,0.20646 -0.43117,0.44241 0,0.42767 1.53993,0.73735 2.04812,1.01755 -0.55439,0.29494 -1.57075,0.44241 -1.83253,0.60462 -0.12314,0.0884 -0.231,0.20646 -0.231,0.36868 0,0.2212 0.1848,0.42766 0.41578,0.42766 0.2926,0 1.35515,-1.01754 1.75554,-1.23875 0,0.69311 -0.36959,1.40097 -0.36959,1.84338 0,0.25069 0.20019,0.41292 0.46199,0.41292 0.26179,0 0.41579,-0.17697 0.41579,-0.41292 0,-0.51615 -0.308,-1.17976 -0.308,-1.84338 0.41579,0.23595 1.44756,1.28299 1.70935,1.28299 0.23099,0 0.44658,-0.20645 0.44658,-0.44241 0,-0.16222 -0.12312,-0.26544 -0.24639,-0.33918 -0.33879,-0.2212 -1.24736,-0.35393 -1.81714,-0.66361 0.61598,-0.35393 1.46296,-0.41292 1.83255,-0.61938 0.15399,-0.0737 0.24639,-0.19171 0.24639,-0.35392 z m 3.8922,5.52274 -2.81809,-5.6481 h -0.61598 l 2.52551,5.6481 -2.52551,5.63336 h 0.61598 z m 0,0"
       style="fill:#000000;fill-opacity:1;fill-rule:nonzero;stroke:none;stroke-width:1.28594" />
  </g>
</svg>
