<?xml version="1.0" encoding="UTF-8" standalone="no"?>
<!-- Created with Inkscape (http://www.inkscape.org/) -->

<svg
   version="1.1"
   id="svg1"
   width="517.02344"
   height="261.3887"
   viewBox="0 0 517.02344 261.3887"
   xmlns="http://www.w3.org/2000/svg"
   xmlns:svg="http://www.w3.org/2000/svg">
  <defs
     id="defs1">
    <clipPath
       clipPathUnits="userSpaceOnUse"
       id="clipPath7">
      <path
         d="M 189.2855,-141.73384 H 354.91107 V 284.58553 H 189.2855"
         id="path7" />
    </clipPath>
    <clipPath
       clipPathUnits="userSpaceOnUse"
       id="clipPath9">
      <path
         d="M 47.52428,-0.00143 V 142.85312 H 496.6723 V -0.00143"
         id="path9" />
    </clipPath>
    <clipPath
       clipPathUnits="userSpaceOnUse"
       id="clipPath15">
      <path
         d="M 189.2855,-141.73384 H 354.91107 V 284.58553 H 189.2855"
         id="path15" />
    </clipPath>
    <clipPath
       clipPathUnits="userSpaceOnUse"
       id="clipPath17">
      <path
         d="M 47.52428,-0.00143 V 142.85312 H 496.6723 V -0.00143"
         id="path17" />
    </clipPath>
    <clipPath
       clipPathUnits="userSpaceOnUse"
       id="clipPath31">
      <path
         d="M 189.2855,-0.00143 H 354.91107 V 142.85312 H 189.2855 Z"
         id="path31" />
    </clipPath>
    <clipPath
       clipPathUnits="userSpaceOnUse"
       id="clipPath33">
      <path
         d="M 189.2855,-0.00143 H 354.91107 V 142.85312 H 189.2855 Z"
         id="path33" />
    </clipPath>
    <clipPath
       clipPathUnits="userSpaceOnUse"
       id="clipPath35">
      <path
         d="M 189.2855,-0.00143 H 354.91107 V 142.85312 H 189.2855 Z"
         id="path35" />
    </clipPath>
    <clipPath
       clipPathUnits="userSpaceOnUse"
       id="clipPath37">
      <path
         d="M 189.2855,-0.00143 H 354.91107 V 142.85312 H 189.2855 Z"
         id="path37" />
    </clipPath>
    <clipPath
       clipPathUnits="userSpaceOnUse"
       id="clipPath39">
      <path
         d="M 189.2855,-0.00143 H 354.91107 V 142.85312 H 189.2855 Z"
         id="path39" />
    </clipPath>
    <clipPath
       clipPathUnits="userSpaceOnUse"
       id="clipPath114">
      <path
         d="M 189.2855,-0.00143 H 354.91107 V 142.85312 H 189.2855 Z"
         id="path114" />
    </clipPath>
    <clipPath
       clipPathUnits="userSpaceOnUse"
       id="clipPath118">
      <path
         d="M 189.2855,-0.00143 H 354.91107 V 142.85312 H 189.2855 Z"
         id="path118" />
    </clipPath>
    <clipPath
       clipPathUnits="userSpaceOnUse"
       id="clipPath120">
      <path
         d="M 189.2855,-0.00143 H 354.91107 V 142.85312 H 189.2855 Z"
         id="path120" />
    </clipPath>
    <clipPath
       clipPathUnits="userSpaceOnUse"
       id="clipPath122">
      <path
         d="M 189.2855,-0.00143 H 354.91107 V 142.85312 H 189.2855 Z"
         id="path122" />
    </clipPath>
    <clipPath
       clipPathUnits="userSpaceOnUse"
       id="clipPath124">
      <path
         d="M 189.2855,-0.00143 H 354.91107 V 142.85312 H 189.2855 Z"
         id="path124" />
    </clipPath>
  </defs>
  <g
     id="g1"
     transform="translate(-65.496094,-117.33636)">
    <path
       id="path6"
       d="M 189.2855,-0.00143 V 142.85312 M 230.6919,-0.00143 V 142.85312 M 272.09828,-0.00143 V 142.85312 M 313.50467,-0.00143 v 142.85455 m 41.4064,-142.85455 v 142.85455"
       style="fill:none;stroke:#bfbfbf;stroke-width:0.3985;stroke-linecap:butt;stroke-linejoin:miter;stroke-miterlimit:10;stroke-dasharray:none;stroke-opacity:1"
       transform="matrix(1.3333333,0,0,-1.3333333,99.642667,349.276)"
       clip-path="url(#clipPath7)" />
    <path
       id="path8"
       d="M 189.2855,-0.00143 H 354.91107 M 189.2855,36.27428 H 354.91107 M 189.2855,72.54999 H 354.91107 M 189.2855,108.82571 h 165.62557"
       style="fill:none;stroke:#bfbfbf;stroke-width:0.3985;stroke-linecap:butt;stroke-linejoin:miter;stroke-miterlimit:10;stroke-dasharray:none;stroke-opacity:1"
       transform="matrix(1.3333333,0,0,-1.3333333,99.642667,349.276)"
       clip-path="url(#clipPath9)" />
    <path
       id="path14"
       d="m 189.2855,-0.00143 v 4.25177 m 41.4064,-4.25177 v 4.25177 m 41.40638,-4.25177 v 4.25177 m 41.40639,-4.25177 v 4.25177 m 41.4064,-4.25177 V 4.25034 M 189.2855,142.85312 v -4.25179 m 41.4064,4.25179 v -4.25179 m 41.40638,4.25179 v -4.25179 m 41.40639,4.25179 v -4.25179 m 41.4064,4.25179 v -4.25179"
       style="fill:none;stroke:#808080;stroke-width:0.19925;stroke-linecap:butt;stroke-linejoin:miter;stroke-miterlimit:10;stroke-dasharray:none;stroke-opacity:1"
       transform="matrix(1.3333333,0,0,-1.3333333,99.642667,349.276)"
       clip-path="url(#clipPath15)" />
    <path
       id="path16"
       d="m 189.2855,-0.00143 h 4.25265 m -4.25265,36.27571 h 4.25265 m -4.25265,36.27571 h 4.25265 m -4.25265,36.27572 h 4.25265 M 354.91107,-0.00143 h -4.25265 m 4.25265,36.27571 h -4.25265 m 4.25265,36.27571 h -4.25265 m 4.25265,36.27572 h -4.25265"
       style="fill:none;stroke:#808080;stroke-width:0.19925;stroke-linecap:butt;stroke-linejoin:miter;stroke-miterlimit:10;stroke-dasharray:none;stroke-opacity:1"
       transform="matrix(1.3333333,0,0,-1.3333333,99.642667,349.276)"
       clip-path="url(#clipPath17)" />
    <path
       id="path19"
       d="M 189.2855,-0.00143 V 142.85312 H 354.91107 V -0.00143 Z"
       style="fill:none;stroke:#000000;stroke-width:0.3985;stroke-linecap:butt;stroke-linejoin:miter;stroke-miterlimit:10;stroke-dasharray:none;stroke-opacity:1"
       transform="matrix(1.3333333,0,0,-1.3333333,99.642667,349.276)" />
    <path
       id="path30"
       d="m 189.2855,7.2537 c 0,0 29.91628,0 41.4064,0 11.4901,0 29.91627,0 41.40638,0 11.49012,0 29.91629,0 41.40639,0 11.49011,0 41.4064,0 41.4064,0 V -0.00143 H 189.2855 Z"
       style="fill:#f2305a;fill-opacity:0.6;fill-rule:nonzero;stroke:none"
       transform="matrix(1.3333333,0,0,-1.3333333,99.642667,349.276)"
       clip-path="url(#clipPath31)" />
    <path
       id="path32"
       d="m 189.2855,31.48586 c 0,0 29.91628,17.46759 41.4064,24.23219 11.4901,6.76462 29.91627,17.69739 41.40638,24.5224 11.49012,6.82499 29.91629,17.78209 41.40639,24.66748 11.49011,6.8854 41.4064,24.9577 41.4064,24.9577 V 68.77731 c 0,0 -29.91629,-9.07851 -41.4064,-12.55141 C 302.01457,52.75302 283.5884,47.15956 272.09828,43.74706 260.60817,40.33456 242.182,35.02335 230.6919,31.63098 219.20178,28.23862 189.2855,19.29723 189.2855,19.29723 Z"
       style="fill:#0064d2;fill-opacity:0.6;fill-rule:nonzero;stroke:none"
       transform="matrix(1.3333333,0,0,-1.3333333,99.642667,349.276)"
       clip-path="url(#clipPath33)" />
    <path
       id="path34"
       d="m 189.2855,19.29723 c 0,0 29.91628,8.94139 41.4064,12.33375 11.4901,3.39237 29.91627,8.70358 41.40638,12.11608 11.49012,3.4125 29.91629,9.00596 41.40639,12.47884 11.49011,3.4729 41.4064,12.55141 41.4064,12.55141 V 19.80508 c 0,0 -29.91629,-1.87701 -41.4064,-2.61184 C 302.01457,16.4584 283.5884,15.20341 272.09828,14.50883 260.60817,13.81425 242.182,12.86163 230.6919,12.1872 219.20178,11.51276 189.2855,9.64789 189.2855,9.64789 Z"
       style="fill:#0099f8;fill-opacity:0.6;fill-rule:nonzero;stroke:none"
       transform="matrix(1.3333333,0,0,-1.3333333,99.642667,349.276)"
       clip-path="url(#clipPath35)" />
    <path
       id="path36"
       d="m 189.2855,9.64789 c 0,0 29.91628,1.86487 41.4064,2.53931 11.4901,0.67443 29.91627,1.62705 41.40638,2.32163 11.49012,0.69458 29.91629,1.94957 41.40639,2.68441 11.49011,0.73483 41.4064,2.61184 41.4064,2.61184 V 13.9284 c 0,0 -29.91629,-0.95359 -41.4064,-1.30592 -11.4901,-0.35232 -29.91627,-0.8307 -41.40639,-1.23337 C 260.60817,10.98647 242.182,10.08281 230.6919,9.72043 219.20178,9.35805 189.2855,8.77727 189.2855,8.77727 Z"
       style="fill:#25bbff;fill-opacity:0.4;fill-rule:nonzero;stroke:none"
       transform="matrix(1.3333333,0,0,-1.3333333,99.642667,349.276)"
       clip-path="url(#clipPath37)" />
    <path
       id="path38"
       d="m 189.2855,8.77727 c 0,0 29.91628,0.58078 41.4064,0.94316 11.4901,0.36238 29.91627,1.26604 41.40638,1.66868 11.49012,0.40267 29.91629,0.88105 41.40639,1.23337 11.49011,0.35233 41.4064,1.30592 41.4064,1.30592 V 7.2537 c 0,0 -29.91629,0 -41.4064,0 -11.4901,0 -29.91627,0 -41.40639,0 -11.49011,0 -29.91628,0 -41.40638,0 -11.49012,0 -41.4064,0 -41.4064,0 z"
       style="fill:#69d6ff;fill-opacity:0.4;fill-rule:nonzero;stroke:none"
       transform="matrix(1.3333333,0,0,-1.3333333,99.642667,349.276)"
       clip-path="url(#clipPath39)" />
    <path
       id="path100"
       d="m 0.44667187,-3.4091016 c 0,0.1523438 0.140625,0.2929688 0.29296875,0.2929688 0.1171875,0 0.33984378,-0.140625 0.33984378,-0.2929688 0,-0.058594 -0.011719,-0.1054687 -0.035156,-0.1523437 -0.011719,-0.058594 -0.0585937,-0.1171875 -0.0585937,-0.1757813 0,-0.1875 0.1992187,-0.4453125 0.7265625,-0.4453125 0.2578125,0 0.6328125,0.1757813 0.6328125,0.8789063 0,0.46875 -0.1640625,0.84375 -0.5976563,1.2773437 l -0.5390625,0.5390625 c -0.7148437,0.72656254 -0.8320312,1.07812504 -0.8320312,1.50000004 0,0 0.375,-0.01171875 0.609375,-0.01171875 h 1.2773434 c 0.2226563,0 0.5625,0.01171875 0.5625,0.01171875 0.09375,-0.38671875 0.1640625,-0.92578125 0.1757813,-1.14843754 -0.046875,-0.035156 -0.140625,-0.046875 -0.2109375,-0.035156 -0.1289063,0.51562499 -0.2460938,0.70312499 -0.515625,0.70312499 H 0.98573437 c 0,-0.3515625 0.50390623,-0.84374999 0.53906253,-0.89062499 l 0.7382812,-0.703125 c 0.4101563,-0.3984375 0.7265625,-0.7148438 0.7265625,-1.265625 0,-0.7851563 -0.6445312,-1.1132813 -1.2304687,-1.1132813 -0.80859378,0 -1.31250003,0.5976563 -1.31250003,1.0312498 z m 5.25585933,2.0390625 c 0,0.69140629 -0.3632812,1.19531254 -0.796875,1.19531254 -0.28125,0 -0.375,-0.17578125 -0.4804687,-0.328125 -0.09375,-0.1171875 -0.2226563,-0.234375 -0.375,-0.234375 -0.140625,0 -0.2695313,0.12890625 -0.2695313,0.26953125 0,0.3046875 0.609375,0.55078125 1.03125,0.55078125 0.9023438,0 1.5351563,-0.66796875 1.5351563,-1.59375004 0,-0.703125 -0.4804688,-1.3359375 -1.3007813,-1.3359375 -0.3046875,0 -0.5742187,0.070312 -0.7148437,0.1171875 l 0.1523437,-1.21875 c 0.2695313,0.035156 0.5039063,0.070312 0.84375,0.070312 0.2226563,0 0.46875,-0.011719 0.7734375,-0.046875 l 0.1171875,-0.4921875 -0.058594,-0.023437 c -0.4101563,0.035156 -0.8085938,0.070312 -1.1953125,0.070312 -0.2695313,0 -0.5273438,-0.011719 -0.7851563,-0.035156 L 3.933,-2.3075391 c 0.3867187,-0.140625 0.6679687,-0.1757812 0.9257812,-0.1757812 0.46875,0 0.84375,0.3164062 0.84375,1.1132812 z m 2.7480469,-2.8125 c 0.1289063,0 0.2460938,0.046875 0.328125,0.1171875 0.2226563,0.1992188 0.421875,0.75 0.421875,1.7226563 0,0.6679687 -0.023437,1.125 -0.1289062,1.49999999 -0.1523438,0.59765625 -0.515625,0.65625 -0.6445313,0.65625 -0.6796875,0 -0.75,-1.24218749 -0.75,-1.87499999 0,-1.7929688 0.4453125,-2.1210938 0.7734375,-2.1210938 z m -0.023437,4.25390629 c 0.5507813,0 1.40625,-0.5625 1.40625,-2.27343749 0,-0.7265625 -0.1757812,-1.3359375 -0.4921875,-1.7578125 -0.1875,-0.2578125 -0.4921875,-0.4804688 -0.890625,-0.4804688 -0.7148437,0 -1.40625,0.8554688 -1.40625,2.296875 0,0.7851563 0.2460938,1.51171879 0.6445313,1.91015629 0.1992187,0.2109375 0.4453125,0.3046875 0.7382812,0.3046875 z m 0,0"
       style="fill:#000000;fill-opacity:1;fill-rule:nonzero;stroke:none"
       aria-label="250"
       transform="matrix(1.3333333,0,0,1.3333333,345.256,359.94)" />
    <path
       id="path101"
       d="m 2.3209453,-1.3700391 c 0,0.69140629 -0.3632812,1.19531254 -0.796875,1.19531254 -0.28125,0 -0.375,-0.17578125 -0.4804687,-0.328125 -0.09375,-0.1171875 -0.22265629,-0.234375 -0.37500004,-0.234375 -0.140625,0 -0.26953125,0.12890625 -0.26953125,0.26953125 0,0.3046875 0.60937499,0.55078125 1.03124999,0.55078125 0.9023438,0 1.5351563,-0.66796875 1.5351563,-1.59375004 0,-0.703125 -0.4804688,-1.3359375 -1.3007813,-1.3359375 -0.3046875,0 -0.5742187,0.070312 -0.71484374,0.1171875 l 0.15234374,-1.21875 c 0.2695313,0.035156 0.5039063,0.070312 0.84375,0.070312 0.2226563,0 0.46875,-0.011719 0.7734375,-0.046875 l 0.1171875,-0.4921875 -0.058594,-0.023437 c -0.4101563,0.035156 -0.8085938,0.070312 -1.1953125,0.070312 -0.2695313,0 -0.5273438,-0.011719 -0.78515629,-0.035156 l -0.24609375,2.0976562 c 0.38671875,-0.140625 0.66796874,-0.1757812 0.92578124,-0.1757812 0.46875,0 0.84375,0.3164062 0.8437503,1.1132815 z m 2.7480469,-2.8125 c 0.1289062,0 0.2460937,0.046875 0.328125,0.1171875 0.2226562,0.1992188 0.421875,0.75 0.421875,1.7226563 0,0.6679687 -0.023437,1.125 -0.1289063,1.49999999 -0.1523437,0.59765625 -0.515625,0.65625 -0.6445312,0.65625 -0.6796875,0 -0.75,-1.24218749 -0.75,-1.87499999 0,-1.7929688 0.4453125,-2.1210938 0.7734375,-2.1210938 z m -0.023437,4.25390629 c 0.5507812,0 1.40625,-0.5625 1.40625,-2.27343749 0,-0.7265625 -0.1757813,-1.3359375 -0.4921875,-1.7578125 -0.1875,-0.2578125 -0.4921875,-0.4804688 -0.890625,-0.4804688 -0.7148438,0 -1.40625,0.8554688 -1.40625,2.296875 0,0.7851563 0.2460937,1.51171879 0.6445312,1.91015629 0.1992188,0.2109375 0.4453125,0.3046875 0.7382813,0.3046875 z M 8.4498516,-4.1825391 c 0.1289062,0 0.2460937,0.046875 0.328125,0.1171875 0.2226562,0.1992188 0.421875,0.75 0.421875,1.7226563 0,0.6679687 -0.023437,1.125 -0.1289063,1.49999999 -0.1523437,0.59765625 -0.515625,0.65625 -0.6445312,0.65625 -0.6796875,0 -0.75,-1.24218749 -0.75,-1.87499999 0,-1.7929688 0.4453125,-2.1210938 0.7734375,-2.1210938 z m -0.023437,4.25390629 c 0.5507812,0 1.40625,-0.5625 1.40625,-2.27343749 0,-0.7265625 -0.1757813,-1.3359375 -0.4921875,-1.7578125 -0.1875,-0.2578125 -0.4921875,-0.4804688 -0.890625,-0.4804688 -0.7148438,0 -1.40625,0.8554688 -1.40625,2.296875 0,0.7851563 0.2460937,1.51171879 0.6445312,1.91015629 0.1992188,0.2109375 0.4453125,0.3046875 0.7382813,0.3046875 z m 0,0"
       style="fill:#000000;fill-opacity:1;fill-rule:nonzero;stroke:none"
       aria-label="500"
       transform="matrix(1.3333333,0,0,1.3333333,400.464,359.94)" />
    <path
       id="path102"
       d="M 1.2420938,-3.8895703 H 2.542875 c -0.5742187,1.40625 -1.1484375,2.8242187 -1.640625,3.93749999 l 0.0585938,0.046875 0.4921875,-0.0234375 C 1.8749063,-1.1591016 2.2733438,-2.3661328 3.0819375,-4.3583203 L 2.96475,-4.4403516 c -0.1171875,0.035156 -0.28125,0.070312 -0.5507812,0.070312 H 0.91396875 c -0.24609375,0 -0.234375,-0.070312 -0.36328125,-0.09375 -0.0234375,0 -0.0351563,0 -0.0351563,0.023437 -0.0117188,0.3398438 -0.0820313,0.7851563 -0.140625,1.1601563 0.0820313,0.023437 0.15234375,0.023437 0.234375,0.023437 0.1523438,-0.585936 0.3984376,-0.632811 0.6328126,-0.632811 z m 4.4589843,2.5195312 c 0,0.69140629 -0.3632812,1.19531254 -0.796875,1.19531254 -0.28125,0 -0.375,-0.17578125 -0.4804687,-0.328125 -0.09375,-0.1171875 -0.2226563,-0.234375 -0.375,-0.234375 -0.140625,0 -0.2695313,0.12890625 -0.2695313,0.26953125 0,0.3046875 0.609375,0.55078125 1.03125,0.55078125 0.9023438,0 1.5351563,-0.66796875 1.5351563,-1.59375004 0,-0.703125 -0.4804688,-1.3359375 -1.3007813,-1.3359375 -0.3046875,0 -0.5742187,0.070312 -0.7148437,0.1171875 l 0.1523437,-1.21875 c 0.2695313,0.035156 0.5039063,0.070312 0.84375,0.070312 0.2226563,0 0.46875,-0.011719 0.7734375,-0.046875 l 0.1171875,-0.4921875 -0.058594,-0.023437 c -0.4101563,0.035156 -0.8085938,0.070312 -1.1953125,0.070312 -0.2695313,0 -0.5273438,-0.011719 -0.7851563,-0.035156 l -0.2460937,2.0976562 c 0.3867187,-0.140625 0.6679687,-0.1757812 0.9257812,-0.1757812 0.46875,0 0.84375,0.3164062 0.8437503,1.1132815 z m 2.7509766,-2.8125 c 0.1289062,0 0.2460937,0.046875 0.328125,0.1171875 0.2226562,0.1992188 0.421875,0.75 0.421875,1.7226563 0,0.6679687 -0.023437,1.125 -0.1289063,1.49999999 -0.1523437,0.59765625 -0.515625,0.65625 -0.6445312,0.65625 -0.6796875,0 -0.75,-1.24218749 -0.75,-1.87499999 0,-1.7929688 0.4453125,-2.1210938 0.7734375,-2.1210938 z m -0.023437,4.25390629 c 0.5507812,0 1.40625,-0.5625 1.40625,-2.27343749 0,-0.7265625 -0.1757813,-1.3359375 -0.4921875,-1.7578125 -0.1875,-0.2578125 -0.4921875,-0.4804688 -0.890625,-0.4804688 -0.7148438,0 -1.40625,0.8554688 -1.40625,2.296875 0,0.7851563 0.2460937,1.51171879 0.6445312,1.91015629 0.1992188,0.2109375 0.4453125,0.3046875 0.7382813,0.3046875 z m 0,0"
       style="fill:#000000;fill-opacity:1;fill-rule:nonzero;stroke:none"
       aria-label="750"
       transform="matrix(1.3333333,0,0,1.3333333,455.672,359.94)" />
    <g
       id="g102"
       aria-label="1,000"
       transform="matrix(1.3333333,0,0,1.3333333,507.56533,359.94)">
      <path
         id="path103"
         d="M 2.0984609,-0.88957031 V -3.4091016 c 0,-0.4453125 0,-0.8789062 0.023437,-0.9726562 0,-0.046875 -0.023437,-0.046875 -0.046875,-0.046875 -0.3984375,0.2578125 -0.7851562,0.4335937 -1.42968746,0.7382812 0.0234375,0.070312 0.046875,0.1523438 0.1171875,0.1875 0.32812496,-0.140625 0.49218746,-0.1757812 0.63281246,-0.1757812 0.1171875,0 0.140625,0.1757812 0.140625,0.421875 v 2.36718749 c 0,0.609375 -0.1992187,0.64453125 -0.70312496,0.66796875 -0.046875,0.0351563 -0.046875,0.19921875 0,0.234375 0.35156246,0 0.62109376,-0.01171875 1.00781246,-0.01171875 0.3515625,0 0.5273438,0.01171875 0.890625,0.01171875 0.046875,-0.03515625 0.046875,-0.19921875 0,-0.234375 -0.515625,-0.0234375 -0.6328125,-0.0585937 -0.632812,-0.66796875 z m 0,0"
         style="fill:#000000;fill-opacity:1;fill-rule:nonzero;stroke:none" />
      <path
         id="path104"
         d="m 3.9851797,-0.69035156 c -0.2578125,0 -0.421875,0.1640625 -0.421875,0.375 0,0.234375 0.2109375,0.29296875 0.3398437,0.31640625 0.1523438,0.01171875 0.28125,0.05859375 0.28125,0.22265625 0,0.15234375 -0.28125,0.48046875 -0.6796875,0.57421875 0,0.0703125 0.011719,0.12890625 0.070312,0.1875 0.4804688,-0.0820313 0.9375,-0.4453125 0.9375,-0.9609375 0,-0.43359375 -0.2109375,-0.71484375 -0.5273432,-0.71484375 z m 0,0"
         style="fill:#000000;fill-opacity:1;fill-rule:nonzero;stroke:none" />
      <path
         id="path105"
         d="m 6.6629141,-4.1825391 c 0.1289062,0 0.2460937,0.046875 0.328125,0.1171875 0.2226562,0.1992188 0.421875,0.75 0.421875,1.7226563 0,0.6679687 -0.023437,1.125 -0.1289063,1.49999999 -0.1523437,0.59765625 -0.515625,0.65625 -0.6445312,0.65625 -0.6796875,0 -0.75,-1.24218749 -0.75,-1.87499999 0,-1.7929688 0.4453125,-2.1210938 0.7734375,-2.1210938 z m -0.023437,4.25390629 c 0.5507812,0 1.40625,-0.5625 1.40625,-2.27343749 0,-0.7265625 -0.1757813,-1.3359375 -0.4921875,-1.7578125 -0.1875,-0.2578125 -0.4921875,-0.4804688 -0.890625,-0.4804688 -0.7148438,0 -1.40625,0.8554688 -1.40625,2.296875 0,0.7851563 0.2460937,1.51171879 0.6445312,1.91015629 0.1992188,0.2109375 0.4453125,0.3046875 0.7382813,0.3046875 z M 10.043773,-4.1825391 c 0.128907,0 0.246094,0.046875 0.328125,0.1171875 0.222657,0.1992188 0.421875,0.75 0.421875,1.7226563 0,0.6679687 -0.02344,1.125 -0.128906,1.49999999 -0.152344,0.59765625 -0.515625,0.65625 -0.644531,0.65625 -0.6796876,0 -0.7500001,-1.24218749 -0.7500001,-1.87499999 0,-1.7929688 0.4453125,-2.1210938 0.7734371,-2.1210938 z m -0.02344,4.25390629 c 0.550781,0 1.40625,-0.5625 1.40625,-2.27343749 0,-0.7265625 -0.175781,-1.3359375 -0.492188,-1.7578125 -0.1875,-0.2578125 -0.492187,-0.4804688 -0.890625,-0.4804688 -0.7148433,0 -1.4062496,0.8554688 -1.4062496,2.296875 0,0.7851563 0.2460938,1.51171879 0.6445313,1.91015629 0.1992187,0.2109375 0.4453125,0.3046875 0.7382813,0.3046875 z M 13.42463,-4.1825391 c 0.128906,0 0.246094,0.046875 0.328125,0.1171875 0.222656,0.1992188 0.421875,0.75 0.421875,1.7226563 0,0.6679687 -0.02344,1.125 -0.128906,1.49999999 -0.152344,0.59765625 -0.515625,0.65625 -0.644532,0.65625 -0.679687,0 -0.75,-1.24218749 -0.75,-1.87499999 0,-1.7929688 0.445313,-2.1210938 0.773438,-2.1210938 z m -0.02344,4.25390629 c 0.550782,0 1.40625,-0.5625 1.40625,-2.27343749 0,-0.7265625 -0.175781,-1.3359375 -0.492187,-1.7578125 -0.1875,-0.2578125 -0.492188,-0.4804688 -0.890625,-0.4804688 -0.714844,0 -1.40625,0.8554688 -1.40625,2.296875 0,0.7851563 0.246094,1.51171879 0.644531,1.91015629 0.199219,0.2109375 0.445313,0.3046875 0.738281,0.3046875 z m 0,0"
         style="fill:#000000;fill-opacity:1;fill-rule:nonzero;stroke:none" />
    </g>
    <g
       id="g105"
       aria-label="1,250"
       transform="matrix(1.3333333,0,0,1.3333333,562.77333,359.94)">
      <path
         id="path106"
         d="M 2.0977344,-0.88957031 V -3.4091016 c 0,-0.4453125 0,-0.8789062 0.023437,-0.9726562 0,-0.046875 -0.023437,-0.046875 -0.046875,-0.046875 -0.3984375,0.2578125 -0.7851563,0.4335937 -1.42968752,0.7382812 0.0234375,0.070312 0.046875,0.1523438 0.1171875,0.1875 0.32812502,-0.140625 0.49218752,-0.1757812 0.63281252,-0.1757812 0.1171875,0 0.140625,0.1757812 0.140625,0.421875 v 2.36718749 c 0,0.609375 -0.1992188,0.64453125 -0.70312502,0.66796875 -0.046875,0.0351563 -0.046875,0.19921875 0,0.234375 0.35156252,0 0.62109372,-0.01171875 1.00781252,-0.01171875 0.3515625,0 0.5273437,0.01171875 0.890625,0.01171875 0.046875,-0.03515625 0.046875,-0.19921875 0,-0.234375 -0.515625,-0.0234375 -0.6328125,-0.0585937 -0.632812,-0.66796875 z m 0,0"
         style="fill:#000000;fill-opacity:1;fill-rule:nonzero;stroke:none" />
      <path
         id="path107"
         d="m 3.9844531,-0.69035156 c -0.2578125,0 -0.421875,0.1640625 -0.421875,0.375 0,0.234375 0.2109375,0.29296875 0.3398438,0.31640625 0.1523437,0.01171875 0.28125,0.05859375 0.28125,0.22265625 0,0.15234375 -0.28125,0.48046875 -0.6796875,0.57421875 0,0.0703125 0.011719,0.12890625 0.070312,0.1875 0.4804687,-0.0820313 0.9375,-0.4453125 0.9375,-0.9609375 0,-0.43359375 -0.2109375,-0.71484375 -0.5273433,-0.71484375 z m 0,0"
         style="fill:#000000;fill-opacity:1;fill-rule:nonzero;stroke:none" />
      <path
         id="path108"
         d="m 5.42,-3.4091016 c 0,0.1523438 0.140625,0.2929688 0.2929688,0.2929688 0.1171875,0 0.3398437,-0.140625 0.3398437,-0.2929688 0,-0.058594 -0.011719,-0.1054687 -0.035156,-0.1523437 -0.011719,-0.058594 -0.058594,-0.1171875 -0.058594,-0.1757813 0,-0.1875 0.1992188,-0.4453125 0.7265625,-0.4453125 0.2578125,0 0.6328125,0.1757813 0.6328125,0.8789063 0,0.46875 -0.1640625,0.84375 -0.5976562,1.2773437 l -0.5390625,0.5390625 c -0.7148438,0.72656254 -0.8320313,1.07812504 -0.8320313,1.50000004 0,0 0.375,-0.01171875 0.609375,-0.01171875 h 1.2773438 c 0.2226562,0 0.5625,0.01171875 0.5625,0.01171875 0.09375,-0.38671875 0.1640625,-0.92578125 0.1757812,-1.14843754 -0.046875,-0.035156 -0.140625,-0.046875 -0.2109375,-0.035156 -0.1289062,0.51562499 -0.2460937,0.70312499 -0.515625,0.70312499 H 5.9590625 c 0,-0.3515625 0.5039063,-0.84374999 0.5390625,-0.89062499 l 0.7382813,-0.703125 c 0.4101562,-0.3984375 0.7265625,-0.7148438 0.7265625,-1.265625 0,-0.7851563 -0.6445313,-1.1132813 -1.2304688,-1.1132813 -0.8085937,0 -1.3125,0.5976563 -1.3125,1.0312498 z m 5.255859,2.0390625 c 0,0.69140629 -0.363281,1.19531254 -0.7968746,1.19531254 -0.28125,0 -0.375,-0.17578125 -0.4804688,-0.328125 -0.09375,-0.1171875 -0.2226562,-0.234375 -0.375,-0.234375 -0.140625,0 -0.2695312,0.12890625 -0.2695312,0.26953125 0,0.3046875 0.609375,0.55078125 1.03125,0.55078125 0.9023436,0 1.5351566,-0.66796875 1.5351566,-1.59375004 0,-0.703125 -0.480469,-1.3359375 -1.300782,-1.3359375 -0.3046871,0 -0.5742184,0.070312 -0.7148434,0.1171875 l 0.1523438,-1.21875 c 0.2695312,0.035156 0.5039062,0.070312 0.8437496,0.070312 0.222657,0 0.46875,-0.011719 0.773438,-0.046875 l 0.117187,-0.4921875 -0.05859,-0.023437 c -0.410157,0.035156 -0.808594,0.070312 -1.1953129,0.070312 -0.2695312,0 -0.5273437,-0.011719 -0.7851562,-0.035156 l -0.2460938,2.0976562 c 0.3867188,-0.140625 0.6679688,-0.1757812 0.9257813,-0.1757812 0.4687496,0 0.8437496,0.3164062 0.8437496,1.1132812 z m 2.750977,-2.8125 c 0.128906,0 0.246094,0.046875 0.328125,0.1171875 0.222656,0.1992188 0.421875,0.75 0.421875,1.7226563 0,0.6679687 -0.02344,1.125 -0.128906,1.49999999 -0.152344,0.59765625 -0.515625,0.65625 -0.644532,0.65625 -0.679687,0 -0.75,-1.24218749 -0.75,-1.87499999 0,-1.7929688 0.445313,-2.1210938 0.773438,-2.1210938 z m -0.02344,4.25390629 c 0.550782,0 1.40625,-0.5625 1.40625,-2.27343749 0,-0.7265625 -0.175781,-1.3359375 -0.492187,-1.7578125 -0.1875,-0.2578125 -0.492188,-0.4804688 -0.890625,-0.4804688 -0.714844,0 -1.40625,0.8554688 -1.40625,2.296875 0,0.7851563 0.246094,1.51171879 0.644531,1.91015629 0.199219,0.2109375 0.445313,0.3046875 0.738281,0.3046875 z m 0,0"
         style="fill:#000000;fill-opacity:1;fill-rule:nonzero;stroke:none" />
    </g>
    <path
       id="path109"
       d="m 1.6868047,-4.1833203 c 0.1289062,0 0.2460937,0.046875 0.328125,0.1171875 0.2226562,0.1992187 0.421875,0.75 0.421875,1.7226562 0,0.6679688 -0.023437,1.125 -0.1289063,1.50000004 -0.1523437,0.59765625 -0.515625,0.65625 -0.6445312,0.65625 -0.67968751,0 -0.75000001,-1.24218754 -0.75000001,-1.87500004 0,-1.7929687 0.44531251,-2.1210937 0.77343751,-2.1210937 z m -0.023437,4.25390624 c 0.5507812,0 1.40625,-0.5625 1.40625,-2.27343754 0,-0.7265625 -0.1757813,-1.3359375 -0.4921875,-1.7578125 -0.1875,-0.2578125 -0.4921875,-0.4804687 -0.890625,-0.4804687 -0.71484376,0 -1.40625001,0.8554687 -1.40625001,2.296875 0,0.7851562 0.24609375,1.51171874 0.64453125,1.91015624 0.19921876,0.2109375 0.44531246,0.3046875 0.73828126,0.3046875 z m 0,0"
       style="fill:#000000;fill-opacity:1;fill-rule:nonzero;stroke:none"
       aria-label="0"
       transform="matrix(1.3333333,0,0,1.3333333,342.81733,352.20667)" />
    <path
       id="path110"
       d="m 2.3196172,-1.3712109 c 0,0.69140621 -0.3632813,1.19531246 -0.796875,1.19531246 -0.28125,0 -0.375,-0.17578125 -0.4804688,-0.328125 -0.09375,-0.1171875 -0.22265621,-0.234375 -0.37499996,-0.234375 -0.140625,0 -0.26953125,0.12890625 -0.26953125,0.26953125 0,0.3046875 0.60937501,0.55078125 1.03125001,0.55078125 0.9023437,0 1.5351562,-0.66796875 1.5351562,-1.59374996 0,-0.703125 -0.4804687,-1.3359375 -1.3007812,-1.3359375 -0.3046875,0 -0.5742188,0.070312 -0.71484376,0.1171875 l 0.15234376,-1.21875 c 0.2695312,0.035156 0.5039062,0.070312 0.84375,0.070312 0.2226562,0 0.46875,-0.011719 0.7734375,-0.046875 l 0.1171875,-0.4921875 -0.058594,-0.023437 c -0.4101562,0.035156 -0.8085937,0.070312 -1.1953125,0.070312 -0.2695312,0 -0.5273437,-0.011719 -0.78515621,-0.035156 l -0.24609375,2.0976563 c 0.38671875,-0.140625 0.66796876,-0.1757813 0.92578126,-0.1757813 0.46875,0 0.84375,0.3164063 0.8437502,1.1132815 z m 0,0"
       style="fill:#000000;fill-opacity:1;fill-rule:nonzero;stroke:none"
       aria-label="5"
       transform="matrix(1.3333333,0,0,1.3333333,342.81733,303.84)" />
    <path
       id="path113"
       d="m 189.2855,7.2537 c 0,0 29.91628,0 41.4064,0 11.4901,0 29.91627,0 41.40638,0 11.49012,0 29.91629,0 41.40639,0 11.49011,0 41.4064,0 41.4064,0"
       style="fill:none;stroke:#f2305a;stroke-width:0.3985;stroke-linecap:butt;stroke-linejoin:miter;stroke-miterlimit:10;stroke-dasharray:none;stroke-opacity:1"
       transform="matrix(1.3333333,0,0,-1.3333333,99.642667,349.276)"
       clip-path="url(#clipPath114)" />
    <path
       id="path117"
       d="m 189.2855,31.48586 c 0,0 29.91628,17.46759 41.4064,24.23219 11.4901,6.76462 29.91627,17.69739 41.40638,24.5224 11.49012,6.82499 29.91629,17.78209 41.40639,24.66748 11.49011,6.8854 41.4064,24.9577 41.4064,24.9577"
       style="fill:none;stroke:#0064d2;stroke-width:0.3985;stroke-linecap:butt;stroke-linejoin:miter;stroke-miterlimit:10;stroke-dasharray:none;stroke-opacity:1"
       transform="matrix(1.3333333,0,0,-1.3333333,99.642667,349.276)"
       clip-path="url(#clipPath118)" />
    <path
       id="path119"
       d="m 189.2855,19.29723 c 0,0 29.91628,8.94139 41.4064,12.33375 11.4901,3.39237 29.91627,8.70358 41.40638,12.11608 11.49012,3.4125 29.91629,9.00596 41.40639,12.47884 11.49011,3.4729 41.4064,12.55141 41.4064,12.55141"
       style="fill:none;stroke:#0099f8;stroke-width:0.3985;stroke-linecap:butt;stroke-linejoin:miter;stroke-miterlimit:10;stroke-dasharray:none;stroke-opacity:1"
       transform="matrix(1.3333333,0,0,-1.3333333,99.642667,349.276)"
       clip-path="url(#clipPath120)" />
    <path
       id="path121"
       d="m 189.2855,9.64789 c 0,0 29.91628,1.86487 41.4064,2.53931 11.4901,0.67443 29.91627,1.62705 41.40638,2.32163 11.49012,0.69458 29.91629,1.94957 41.40639,2.68441 11.49011,0.73483 41.4064,2.61184 41.4064,2.61184"
       style="fill:none;stroke:#25bbff;stroke-width:0.3985;stroke-linecap:butt;stroke-linejoin:miter;stroke-miterlimit:10;stroke-dasharray:none;stroke-opacity:1"
       transform="matrix(1.3333333,0,0,-1.3333333,99.642667,349.276)"
       clip-path="url(#clipPath122)" />
    <path
       id="path123"
       d="m 189.2855,8.77727 c 0,0 29.91628,0.58078 41.4064,0.94316 11.4901,0.36238 29.91627,1.26604 41.40638,1.66868 11.49012,0.40267 29.91629,0.88105 41.40639,1.23337 11.49011,0.35233 41.4064,1.30592 41.4064,1.30592"
       style="fill:none;stroke:#69d6ff;stroke-width:0.3985;stroke-linecap:butt;stroke-linejoin:miter;stroke-miterlimit:10;stroke-dasharray:none;stroke-opacity:1"
       transform="matrix(1.3333333,0,0,-1.3333333,99.642667,349.276)"
       clip-path="url(#clipPath124)" />
    <path
       id="path125"
       d="m 190.6803,7.2537 c 0,0.7703 -0.62447,1.39477 -1.3948,1.39477 -0.7703,0 -1.39477,-0.62447 -1.39477,-1.39477 0,-0.77032 0.62447,-1.39478 1.39477,-1.39478 0.77033,0 1.3948,0.62446 1.3948,1.39478 z"
       style="fill:#f2305a;fill-opacity:1;fill-rule:nonzero;stroke:#f2305a;stroke-width:0.3985;stroke-linecap:butt;stroke-linejoin:miter;stroke-miterlimit:10;stroke-dasharray:none;stroke-opacity:1"
       transform="matrix(1.3333333,0,0,-1.3333333,99.642667,349.276)" />
    <path
       id="path126"
       d="m 232.08669,7.2537 c 0,0.7703 -0.62447,1.39477 -1.39479,1.39477 -0.77031,0 -1.39478,-0.62447 -1.39478,-1.39477 0,-0.77032 0.62447,-1.39478 1.39478,-1.39478 0.77032,0 1.39479,0.62446 1.39479,1.39478 z"
       style="fill:#f2305a;fill-opacity:1;fill-rule:nonzero;stroke:#f2305a;stroke-width:0.3985;stroke-linecap:butt;stroke-linejoin:miter;stroke-miterlimit:10;stroke-dasharray:none;stroke-opacity:1"
       transform="matrix(1.3333333,0,0,-1.3333333,99.642667,349.276)" />
    <path
       id="path127"
       d="m 273.49307,7.2537 c 0,0.7703 -0.62447,1.39477 -1.39479,1.39477 -0.77031,0 -1.39478,-0.62447 -1.39478,-1.39477 0,-0.77032 0.62447,-1.39478 1.39478,-1.39478 0.77032,0 1.39479,0.62446 1.39479,1.39478 z"
       style="fill:#f2305a;fill-opacity:1;fill-rule:nonzero;stroke:#f2305a;stroke-width:0.3985;stroke-linecap:butt;stroke-linejoin:miter;stroke-miterlimit:10;stroke-dasharray:none;stroke-opacity:1"
       transform="matrix(1.3333333,0,0,-1.3333333,99.642667,349.276)" />
    <path
       id="path128"
       d="m 314.89946,7.2537 c 0,0.7703 -0.62446,1.39477 -1.39479,1.39477 -0.77031,0 -1.39477,-0.62447 -1.39477,-1.39477 0,-0.77032 0.62446,-1.39478 1.39477,-1.39478 0.77033,0 1.39479,0.62446 1.39479,1.39478 z"
       style="fill:#f2305a;fill-opacity:1;fill-rule:nonzero;stroke:#f2305a;stroke-width:0.3985;stroke-linecap:butt;stroke-linejoin:miter;stroke-miterlimit:10;stroke-dasharray:none;stroke-opacity:1"
       transform="matrix(1.3333333,0,0,-1.3333333,99.642667,349.276)" />
    <path
       id="path129"
       d="m 356.30585,7.2537 c 0,0.7703 -0.62447,1.39477 -1.39478,1.39477 -0.77032,0 -1.39479,-0.62447 -1.39479,-1.39477 0,-0.77032 0.62447,-1.39478 1.39479,-1.39478 0.77031,0 1.39478,0.62446 1.39478,1.39478 z"
       style="fill:#f2305a;fill-opacity:1;fill-rule:nonzero;stroke:#f2305a;stroke-width:0.3985;stroke-linecap:butt;stroke-linejoin:miter;stroke-miterlimit:10;stroke-dasharray:none;stroke-opacity:1"
       transform="matrix(1.3333333,0,0,-1.3333333,99.642667,349.276)" />
    <path
       id="path130"
       d="m 190.6803,31.48586 c 0,0.77032 -0.62447,1.39479 -1.3948,1.39479 -0.7703,0 -1.39477,-0.62447 -1.39477,-1.39479 0,-0.77031 0.62447,-1.39478 1.39477,-1.39478 0.77033,0 1.3948,0.62447 1.3948,1.39478 z"
       style="fill:#0064d2;fill-opacity:1;fill-rule:nonzero;stroke:#0064d2;stroke-width:0.3985;stroke-linecap:butt;stroke-linejoin:miter;stroke-miterlimit:10;stroke-dasharray:none;stroke-opacity:1"
       transform="matrix(1.3333333,0,0,-1.3333333,99.642667,349.276)" />
    <path
       id="path131"
       d="m 232.08669,55.71805 c 0,0.77032 -0.62447,1.39479 -1.39479,1.39479 -0.77031,0 -1.39478,-0.62447 -1.39478,-1.39479 0,-0.77031 0.62447,-1.39478 1.39478,-1.39478 0.77032,0 1.39479,0.62447 1.39479,1.39478 z"
       style="fill:#0064d2;fill-opacity:1;fill-rule:nonzero;stroke:#0064d2;stroke-width:0.3985;stroke-linecap:butt;stroke-linejoin:miter;stroke-miterlimit:10;stroke-dasharray:none;stroke-opacity:1"
       transform="matrix(1.3333333,0,0,-1.3333333,99.642667,349.276)" />
    <path
       id="path132"
       d="m 273.49307,80.24045 c 0,0.77031 -0.62447,1.39477 -1.39479,1.39477 -0.77031,0 -1.39478,-0.62446 -1.39478,-1.39477 0,-0.77033 0.62447,-1.39479 1.39478,-1.39479 0.77032,0 1.39479,0.62446 1.39479,1.39479 z"
       style="fill:#0064d2;fill-opacity:1;fill-rule:nonzero;stroke:#0064d2;stroke-width:0.3985;stroke-linecap:butt;stroke-linejoin:miter;stroke-miterlimit:10;stroke-dasharray:none;stroke-opacity:1"
       transform="matrix(1.3333333,0,0,-1.3333333,99.642667,349.276)" />
    <path
       id="path133"
       d="m 314.89946,104.90793 c 0,0.77032 -0.62446,1.39479 -1.39479,1.39479 -0.77031,0 -1.39477,-0.62447 -1.39477,-1.39479 0,-0.77031 0.62446,-1.39478 1.39477,-1.39478 0.77033,0 1.39479,0.62447 1.39479,1.39478 z"
       style="fill:#0064d2;fill-opacity:1;fill-rule:nonzero;stroke:#0064d2;stroke-width:0.3985;stroke-linecap:butt;stroke-linejoin:miter;stroke-miterlimit:10;stroke-dasharray:none;stroke-opacity:1"
       transform="matrix(1.3333333,0,0,-1.3333333,99.642667,349.276)" />
    <path
       id="path134"
       d="m 356.30585,129.86563 c 0,0.77031 -0.62447,1.39477 -1.39478,1.39477 -0.77032,0 -1.39479,-0.62446 -1.39479,-1.39477 0,-0.77031 0.62447,-1.39479 1.39479,-1.39479 0.77031,0 1.39478,0.62448 1.39478,1.39479 z"
       style="fill:#0064d2;fill-opacity:1;fill-rule:nonzero;stroke:#0064d2;stroke-width:0.3985;stroke-linecap:butt;stroke-linejoin:miter;stroke-miterlimit:10;stroke-dasharray:none;stroke-opacity:1"
       transform="matrix(1.3333333,0,0,-1.3333333,99.642667,349.276)" />
    <path
       id="path135"
       d="m 190.6803,19.29723 c 0,0.77032 -0.62447,1.39479 -1.3948,1.39479 -0.7703,0 -1.39477,-0.62447 -1.39477,-1.39479 0,-0.77031 0.62447,-1.39478 1.39477,-1.39478 0.77033,0 1.3948,0.62447 1.3948,1.39478 z"
       style="fill:#0099f8;fill-opacity:1;fill-rule:nonzero;stroke:#0099f8;stroke-width:0.3985;stroke-linecap:butt;stroke-linejoin:miter;stroke-miterlimit:10;stroke-dasharray:none;stroke-opacity:1"
       transform="matrix(1.3333333,0,0,-1.3333333,99.642667,349.276)" />
    <path
       id="path136"
       d="m 232.08669,31.63098 c 0,0.77031 -0.62447,1.39478 -1.39479,1.39478 -0.77031,0 -1.39478,-0.62447 -1.39478,-1.39478 0,-0.77032 0.62447,-1.39479 1.39478,-1.39479 0.77032,0 1.39479,0.62447 1.39479,1.39479 z"
       style="fill:#0099f8;fill-opacity:1;fill-rule:nonzero;stroke:#0099f8;stroke-width:0.3985;stroke-linecap:butt;stroke-linejoin:miter;stroke-miterlimit:10;stroke-dasharray:none;stroke-opacity:1"
       transform="matrix(1.3333333,0,0,-1.3333333,99.642667,349.276)" />
    <path
       id="path137"
       d="m 273.49307,43.74706 c 0,0.77032 -0.62447,1.39479 -1.39479,1.39479 -0.77031,0 -1.39478,-0.62447 -1.39478,-1.39479 0,-0.77031 0.62447,-1.39478 1.39478,-1.39478 0.77032,0 1.39479,0.62447 1.39479,1.39478 z"
       style="fill:#0099f8;fill-opacity:1;fill-rule:nonzero;stroke:#0099f8;stroke-width:0.3985;stroke-linecap:butt;stroke-linejoin:miter;stroke-miterlimit:10;stroke-dasharray:none;stroke-opacity:1"
       transform="matrix(1.3333333,0,0,-1.3333333,99.642667,349.276)" />
    <path
       id="path138"
       d="m 314.89946,56.2259 c 0,0.77032 -0.62446,1.3948 -1.39479,1.3948 -0.77031,0 -1.39477,-0.62448 -1.39477,-1.3948 0,-0.7703 0.62446,-1.39477 1.39477,-1.39477 0.77033,0 1.39479,0.62447 1.39479,1.39477 z"
       style="fill:#0099f8;fill-opacity:1;fill-rule:nonzero;stroke:#0099f8;stroke-width:0.3985;stroke-linecap:butt;stroke-linejoin:miter;stroke-miterlimit:10;stroke-dasharray:none;stroke-opacity:1"
       transform="matrix(1.3333333,0,0,-1.3333333,99.642667,349.276)" />
    <path
       id="path139"
       d="m 356.30585,68.77731 c 0,0.77031 -0.62447,1.39479 -1.39478,1.39479 -0.77032,0 -1.39479,-0.62448 -1.39479,-1.39479 0,-0.77031 0.62447,-1.39477 1.39479,-1.39477 0.77031,0 1.39478,0.62446 1.39478,1.39477 z"
       style="fill:#0099f8;fill-opacity:1;fill-rule:nonzero;stroke:#0099f8;stroke-width:0.3985;stroke-linecap:butt;stroke-linejoin:miter;stroke-miterlimit:10;stroke-dasharray:none;stroke-opacity:1"
       transform="matrix(1.3333333,0,0,-1.3333333,99.642667,349.276)" />
    <path
       id="path140"
       d="m 190.6803,9.64789 c 0,0.77031 -0.62447,1.39477 -1.3948,1.39477 -0.7703,0 -1.39477,-0.62446 -1.39477,-1.39477 0,-0.77033 0.62447,-1.39479 1.39477,-1.39479 0.77033,0 1.3948,0.62446 1.3948,1.39479 z"
       style="fill:#25bbff;fill-opacity:1;fill-rule:nonzero;stroke:#25bbff;stroke-width:0.3985;stroke-linecap:butt;stroke-linejoin:miter;stroke-miterlimit:10;stroke-dasharray:none;stroke-opacity:1"
       transform="matrix(1.3333333,0,0,-1.3333333,99.642667,349.276)" />
    <path
       id="path141"
       d="m 232.08669,12.1872 c 0,0.7703 -0.62447,1.39477 -1.39479,1.39477 -0.77031,0 -1.39478,-0.62447 -1.39478,-1.39477 0,-0.77033 0.62447,-1.3948 1.39478,-1.3948 0.77032,0 1.39479,0.62447 1.39479,1.3948 z"
       style="fill:#25bbff;fill-opacity:1;fill-rule:nonzero;stroke:#25bbff;stroke-width:0.3985;stroke-linecap:butt;stroke-linejoin:miter;stroke-miterlimit:10;stroke-dasharray:none;stroke-opacity:1"
       transform="matrix(1.3333333,0,0,-1.3333333,99.642667,349.276)" />
    <path
       id="path142"
       d="m 273.49307,14.50883 c 0,0.77031 -0.62447,1.3948 -1.39479,1.3948 -0.77031,0 -1.39478,-0.62449 -1.39478,-1.3948 0,-0.7703 0.62447,-1.39477 1.39478,-1.39477 0.77032,0 1.39479,0.62447 1.39479,1.39477 z"
       style="fill:#25bbff;fill-opacity:1;fill-rule:nonzero;stroke:#25bbff;stroke-width:0.3985;stroke-linecap:butt;stroke-linejoin:miter;stroke-miterlimit:10;stroke-dasharray:none;stroke-opacity:1"
       transform="matrix(1.3333333,0,0,-1.3333333,99.642667,349.276)" />
    <path
       id="path143"
       d="m 314.89946,17.19324 c 0,0.77031 -0.62446,1.39477 -1.39479,1.39477 -0.77031,0 -1.39477,-0.62446 -1.39477,-1.39477 0,-0.77033 0.62446,-1.39479 1.39477,-1.39479 0.77033,0 1.39479,0.62446 1.39479,1.39479 z"
       style="fill:#25bbff;fill-opacity:1;fill-rule:nonzero;stroke:#25bbff;stroke-width:0.3985;stroke-linecap:butt;stroke-linejoin:miter;stroke-miterlimit:10;stroke-dasharray:none;stroke-opacity:1"
       transform="matrix(1.3333333,0,0,-1.3333333,99.642667,349.276)" />
    <path
       id="path144"
       d="m 356.30585,19.80508 c 0,0.77032 -0.62447,1.39478 -1.39478,1.39478 -0.77032,0 -1.39479,-0.62446 -1.39479,-1.39478 0,-0.77031 0.62447,-1.39477 1.39479,-1.39477 0.77031,0 1.39478,0.62446 1.39478,1.39477 z"
       style="fill:#25bbff;fill-opacity:1;fill-rule:nonzero;stroke:#25bbff;stroke-width:0.3985;stroke-linecap:butt;stroke-linejoin:miter;stroke-miterlimit:10;stroke-dasharray:none;stroke-opacity:1"
       transform="matrix(1.3333333,0,0,-1.3333333,99.642667,349.276)" />
    <path
       id="path145"
       d="m 190.6803,8.77727 c 0,0.77031 -0.62447,1.39477 -1.3948,1.39477 -0.7703,0 -1.39477,-0.62446 -1.39477,-1.39477 0,-0.77031 0.62447,-1.39479 1.39477,-1.39479 0.77033,0 1.3948,0.62448 1.3948,1.39479 z"
       style="fill:#69d6ff;fill-opacity:1;fill-rule:nonzero;stroke:#69d6ff;stroke-width:0.3985;stroke-linecap:butt;stroke-linejoin:miter;stroke-miterlimit:10;stroke-dasharray:none;stroke-opacity:1"
       transform="matrix(1.3333333,0,0,-1.3333333,99.642667,349.276)" />
    <path
       id="path146"
       d="m 232.08669,9.72043 c 0,0.77031 -0.62447,1.39477 -1.39479,1.39477 -0.77031,0 -1.39478,-0.62446 -1.39478,-1.39477 0,-0.77031 0.62447,-1.39479 1.39478,-1.39479 0.77032,0 1.39479,0.62448 1.39479,1.39479 z"
       style="fill:#69d6ff;fill-opacity:1;fill-rule:nonzero;stroke:#69d6ff;stroke-width:0.3985;stroke-linecap:butt;stroke-linejoin:miter;stroke-miterlimit:10;stroke-dasharray:none;stroke-opacity:1"
       transform="matrix(1.3333333,0,0,-1.3333333,99.642667,349.276)" />
    <path
       id="path147"
       d="m 273.49307,11.38911 c 0,0.77033 -0.62447,1.39479 -1.39479,1.39479 -0.77031,0 -1.39478,-0.62446 -1.39478,-1.39479 0,-0.77031 0.62447,-1.39477 1.39478,-1.39477 0.77032,0 1.39479,0.62446 1.39479,1.39477 z"
       style="fill:#69d6ff;fill-opacity:1;fill-rule:nonzero;stroke:#69d6ff;stroke-width:0.3985;stroke-linecap:butt;stroke-linejoin:miter;stroke-miterlimit:10;stroke-dasharray:none;stroke-opacity:1"
       transform="matrix(1.3333333,0,0,-1.3333333,99.642667,349.276)" />
    <path
       id="path148"
       d="m 314.89946,12.62248 c 0,0.77031 -0.62446,1.39479 -1.39479,1.39479 -0.77031,0 -1.39477,-0.62448 -1.39477,-1.39479 0,-0.77031 0.62446,-1.39478 1.39477,-1.39478 0.77033,0 1.39479,0.62447 1.39479,1.39478 z"
       style="fill:#69d6ff;fill-opacity:1;fill-rule:nonzero;stroke:#69d6ff;stroke-width:0.3985;stroke-linecap:butt;stroke-linejoin:miter;stroke-miterlimit:10;stroke-dasharray:none;stroke-opacity:1"
       transform="matrix(1.3333333,0,0,-1.3333333,99.642667,349.276)" />
    <path
       id="path149"
       d="m 356.30585,13.9284 c 0,0.77033 -0.62447,1.3948 -1.39478,1.3948 -0.77032,0 -1.39479,-0.62447 -1.39479,-1.3948 0,-0.7703 0.62447,-1.39477 1.39479,-1.39477 0.77031,0 1.39478,0.62447 1.39478,1.39477 z"
       style="fill:#69d6ff;fill-opacity:1;fill-rule:nonzero;stroke:#69d6ff;stroke-width:0.3985;stroke-linecap:butt;stroke-linejoin:miter;stroke-miterlimit:10;stroke-dasharray:none;stroke-opacity:1"
       transform="matrix(1.3333333,0,0,-1.3333333,99.642667,349.276)" />
    <path
       id="path150"
       d="m 1.7105156,-1.0903203 v -3.5976563 c 0,-0.75 0.1523438,-0.7851562 0.7851563,-0.8203125 0.046875,-0.046875 0.046875,-0.234375 0,-0.2929687 -0.3984375,0.011719 -0.8203125,0.023437 -1.171875,0.023437 -0.2929688,0 -0.73828128,-0.011719 -1.14843753,-0.023437 -0.0585937,0.058594 -0.0585937,0.2460937 0,0.2929687 0.62109375,0.035156 0.7734375,0.070312 0.7734375,0.8203125 v 3.5976563 c 0,0.73828124 -0.15234375,0.78515624 -0.7734375,0.80859374 -0.0585937,0.0585938 -0.0585937,0.24609375 0,0.3046875 0.3984375,-0.01171875 0.83203123,-0.0234375025 1.16015623,-0.0234375025 0.328125,0 0.75,0.0117187525 1.1601563,0.0234375025 0.046875,-0.05859375 0.046875,-0.24609375 0,-0.3046875 -0.6328125,-0.0234375 -0.7851563,-0.0703125 -0.7851563,-0.80859374 z m 2.6044922,-2.1210938 c -0.058594,0.058594 -0.1054687,0.082031 -0.1054687,0 -0.011719,-0.2460937 -0.035156,-0.5859375 -0.082031,-0.6796875 -0.011719,-0.046875 -0.035156,-0.070312 -0.1054687,-0.070312 -0.2460938,0.09375 -0.4804688,0.1757813 -1.1015625,0.2578125 -0.011719,0.058594 0,0.1992188 0.023437,0.2460938 0.4804687,0.046875 0.5742187,0.09375 0.5742187,0.609375 v 1.7578125 c 0,0.72656249 -0.082031,0.76171874 -0.6210937,0.80859374 -0.058594,0.0585938 -0.058594,0.24609375 0,0.3046875 0.2695312,-0.01171875 0.6210937,-0.0234375025 0.984375,-0.0234375025 0.3632812,0 0.6328125,0.0117187525 0.9023437,0.0234375025 0.046875,-0.05859375 0.046875,-0.24609375 0,-0.3046875 -0.4570312,-0.046875 -0.5507812,-0.0820313 -0.5507812,-0.80859374 v -1.4765625 c 0,-0.1875 0.082031,-0.2929688 0.1523437,-0.375 0.3398438,-0.328125 0.7382813,-0.5273438 1.0898438,-0.5273438 0.1875,0 0.375,0.1171875 0.4804687,0.3164063 0.082031,0.1875 0.1054688,0.421875 0.1054688,0.6914062 v 1.3710938 c 0,0.72656249 -0.09375,0.76171874 -0.5507813,0.80859374 -0.046875,0.0585938 -0.046875,0.24609375 0,0.3046875 0.2578125,-0.01171875 0.5507813,-0.0234375025 0.9140625,-0.0234375025 0.3515625,0 0.6796875,0.0117187525 0.9492188,0.0234375025 0.035156,-0.05859375 0.035156,-0.24609375 0,-0.3046875 -0.5039063,-0.046875 -0.609375,-0.0820313 -0.609375,-0.80859374 v -1.3359375 c 0,-0.4921875 -0.035156,-0.9257813 -0.234375,-1.2070313 -0.1523438,-0.1992187 -0.4335938,-0.3046875 -0.75,-0.3046875 -0.4335938,0 -0.9375,0.1171875 -1.4648436,0.726562 z m 3.6416016,1.96875 c 0.035156,0.44531254 0.058594,0.86718754 0.058594,1.2421875375 0.09375,-0.0234374975 0.1757813,-0.0234374975 0.2226563,-0.0234374975 0.070312,0 0.1171875,0 0.1757812,0.01171875 0.2460938,0.0703125 0.4921875,0.10546875 0.8203125,0.10546875 0.5039063,0 1.4296876,-0.24609375 1.4296876,-1.13671874 0,-0.609375 -0.445313,-0.9609375 -1.0546876,-1.1835938 -0.5390625,-0.2109375 -0.890625,-0.3515625 -0.890625,-0.84375 0,-0.3632812 0.3164063,-0.5742187 0.6210938,-0.5742187 0.1992187,0 0.7148438,0.082031 0.8320308,0.84375 0.05859,0.046875 0.234375,0.035156 0.292969,-0.011719 0.02344,-0.328125 0.04687,-0.65625 0.05859,-0.9492187 -0.28125,-0.046875 -0.7148438,-0.1757813 -1.1835938,-0.1757813 -0.65625,0 -1.265625,0.4335938 -1.265625,1.0078125 0,0.65625 0.3046875,0.9257813 0.9960937,1.21875 0.7382813,0.3046875 0.9140625,0.4921875 0.9140625,0.87890629 0,0.43359375 -0.4335937,0.62109375 -0.7617187,0.62109375 -0.3515625,0 -0.5507813,-0.1171875 -0.6445313,-0.2109375 C 8.3784807,-0.63328926 8.2847307,-1.020008 8.2261369,-1.2426643 c -0.046875,-0.058594 -0.2226562,-0.046875 -0.2695312,0 z m 3.4511716,-2.6015625 c -0.128906,0 -0.164062,0.1054688 -0.164062,0.1757813 v 0.1171875 c 0,0.046875 0.01172,0.058594 0.04687,0.058594 h 0.527343 v 2.69531254 c 0,0.6328125 0.28125,0.890625 0.691407,0.890625 0.410156,0 0.855468,-0.19921875 1.207031,-0.59765625 -0.01172,-0.0820313 -0.07031,-0.140625 -0.164063,-0.15234375 -0.222656,0.17578125 -0.492187,0.2578125 -0.726562,0.2578125 -0.246094,0 -0.292969,-0.26953125 -0.292969,-0.83203124 v -2.2617188 h 0.925781 c 0.09375,0 0.210938,-0.035156 0.210938,-0.1171875 v -0.1875 c 0,-0.035156 -0.02344,-0.046875 -0.07031,-0.046875 h -1.066406 v -0.3515625 c 0,-0.5859375 0.03516,-0.9375 0.03516,-0.9375 0,-0.058594 -0.03516,-0.082031 -0.08203,-0.082031 -0.03516,0 -0.105469,0.035156 -0.1875,0.082031 -0.105469,0.046875 -0.1875,0.09375 -0.304687,0.1171875 -0.117188,0.035156 -0.199219,0.070312 -0.199219,0.1289063 0,0.1054687 0.02344,0.046875 0.02344,1.0429687 z m 4.028321,0.6328125 c -0.02344,-0.3515625 -0.03516,-0.5859375 -0.07031,-0.6796875 -0.02344,-0.046875 -0.04687,-0.070312 -0.117187,-0.070312 -0.246094,0.09375 -0.480469,0.1757813 -1.101563,0.2578125 -0.01172,0.058594 0,0.1992188 0.02344,0.2460938 0.480468,0.046875 0.574218,0.09375 0.574218,0.609375 v 1.7578125 c 0,0.73828124 -0.105468,0.77343749 -0.65625,0.80859374 -0.05859,0.0585938 -0.05859,0.24609375 0,0.3046875 0.316407,-0.01171875 0.65625,-0.0234375025 1.019532,-0.0234375025 0.363281,0 0.773437,0.0117187525 1.089843,0.0234375025 0.04687,-0.05859375 0.04687,-0.24609375 0,-0.3046875 -0.632812,-0.046875 -0.738281,-0.0703125 -0.738281,-0.80859374 v -1.2539063 c 0,-0.234375 0.105469,-0.4335937 0.210938,-0.5976562 0.105468,-0.140625 0.304687,-0.4335938 0.410156,-0.4335938 0.08203,0 0.164062,0.011719 0.234375,0.1171875 0.07031,0.082031 0.175781,0.1992188 0.328125,0.1992188 0.210937,0 0.421875,-0.2226563 0.421875,-0.4453125 0,-0.1757813 -0.164063,-0.4335938 -0.539063,-0.4335938 -0.421875,0 -0.785156,0.3984375 -0.996093,0.75 -0.05859,0.09375 -0.09375,0.023437 -0.09375,-0.023437 z m 3.697265,3.30468754 c 0.351563,0 0.773438,-0.1875 1.207031,-0.5390625 0.04687,-0.0351563 0.128907,-0.0585937 0.140625,0.0117188 0.02344,0.22265625 0.09375,0.52734375 0.09375,0.52734375 0.07031,0.0234375 0.117188,0.01171875 0.175782,0 0.199218,-0.1640625 0.503906,-0.3046875 1.054687,-0.36328125 0.05859,-0.0585938 0.05859,-0.1875 0,-0.24609375 -0.574219,-0.0351563 -0.65625,-0.2109375 -0.65625,-0.64453119 V -2.883289 c 0,-0.2695312 0.03516,-0.9257812 0.03516,-0.9257812 0,-0.023437 -0.02344,-0.058594 -0.07031,-0.058594 -0.04687,0.011719 -0.175781,0.023437 -0.316406,0.023437 -0.28125,0 -0.609375,-0.011719 -0.914063,-0.023437 -0.04687,0.058594 -0.04687,0.2460938 0,0.3046875 0.445313,0.023437 0.5625,0.1289063 0.5625,0.7148438 v 1.734375 c 0,0.17578119 -0.02344,0.24609369 -0.152344,0.35156244 -0.328125,0.28125 -0.667968,0.43359375 -0.890625,0.43359375 -0.269531,0 -0.714843,-0.12890625 -0.714843,-0.92578119 v -1.6289063 c 0,-0.2695312 0.03516,-0.9257812 0.03516,-0.9257812 0,-0.023437 -0.02344,-0.058594 -0.07031,-0.058594 -0.04687,0.011719 -0.1875,0.023437 -0.316406,0.023437 -0.292969,0 -0.609375,-0.011719 -0.914062,-0.023437 -0.05859,0.058594 -0.05859,0.2460938 0,0.3046875 0.433593,0.035156 0.550781,0.1289063 0.550781,0.7148438 v 1.7226562 c 0,0.60937499 0.269531,1.21874999 1.160156,1.21874999 z m 6.37793,-0.9140625 c -0.03516,-0.0703125 -0.105469,-0.1171875 -0.1875,-0.1171875 -0.304688,0.38671875 -0.691406,0.5859375 -1.066406,0.5859375 -0.65625,0 -1.207032,-0.65625004 -1.207032,-1.71093754 0,-0.984375 0.433594,-1.5820312 1.019532,-1.5820312 0.527343,0 0.609375,0.3164062 0.644531,0.6328125 0.02344,0.2460937 0.152344,0.328125 0.339844,0.328125 0.1875,0 0.433593,-0.1171875 0.433593,-0.3984375 0,-0.4921875 -0.503906,-0.8554688 -1.371093,-0.8554688 -0.890625,0 -1.839844,0.796875 -1.839844,2.0742188 0,1.16015624 0.644531,1.95703124 1.78125,1.95703124 0.539062,0 1.007812,-0.17578125 1.453125,-0.9140625 z m 0.662109,-3.02343754 c -0.128906,0 -0.164062,0.1054688 -0.164062,0.1757813 v 0.1171875 c 0,0.046875 0.01172,0.058594 0.04687,0.058594 h 0.527343 v 2.69531254 c 0,0.6328125 0.28125,0.890625 0.691407,0.890625 0.410156,0 0.855468,-0.19921875 1.207031,-0.59765625 -0.01172,-0.0820313 -0.07031,-0.140625 -0.164063,-0.15234375 -0.222656,0.17578125 -0.492187,0.2578125 -0.726562,0.2578125 -0.246094,0 -0.292969,-0.26953125 -0.292969,-0.83203124 v -2.2617188 h 0.925781 c 0.09375,0 0.210938,-0.035156 0.210938,-0.1171875 v -0.1875 c 0,-0.035156 -0.02344,-0.046875 -0.07031,-0.046875 h -1.066406 v -0.3515625 c 0,-0.5859375 0.03516,-0.9375 0.03516,-0.9375 0,-0.058594 -0.03516,-0.082031 -0.08203,-0.082031 -0.03516,0 -0.105469,0.035156 -0.1875,0.082031 -0.105469,0.046875 -0.1875,0.09375 -0.304687,0.1171875 -0.117188,0.035156 -0.199219,0.070312 -0.199219,0.1289063 0,0.1054687 0.02344,0.046875 0.02344,1.0429687 z m 3.254883,-1.5234375 c 0,0.234375 0.210938,0.46875 0.433594,0.46875 0.246094,0 0.457031,-0.2460937 0.457031,-0.4335937 0,-0.2226563 -0.1875,-0.46875 -0.421875,-0.46875 -0.222656,0 -0.46875,0.2109375 -0.46875,0.4335937 z m 0.808594,4.2773438 v -1.7929688 c 0,-0.4453125 0.04687,-1.0195312 0.04687,-1.0195312 0,-0.035156 -0.04687,-0.058594 -0.117188,-0.058594 -0.257812,0.09375 -0.609375,0.1757813 -1.230468,0.2578125 -0.02344,0.058594 0,0.1992188 0.01172,0.2460938 0.492188,0.046875 0.585938,0.1054687 0.585938,0.609375 v 1.7578125 c 0,0.73828124 -0.09375,0.76171874 -0.644531,0.80859374 -0.05859,0.0585938 -0.05859,0.24609375 0,0.3046875 0.292968,-0.01171875 0.644531,-0.0234375025 1.007812,-0.0234375025 0.351563,0 0.691406,0.0117187525 0.996094,0.0234375025 0.04687,-0.05859375 0.04687,-0.24609375 0,-0.3046875 -0.550781,-0.0351563 -0.65625,-0.0703125 -0.65625,-0.80859374 z m 1.177734,-0.75 c 0,0.91406249 0.609375,1.93359374 1.886719,1.93359374 0.574219,0 1.007812,-0.2109375 1.3125,-0.50390625 0.410156,-0.3984375 0.585937,-0.96093749 0.585937,-1.51171879 0,-0.9257812 -0.503906,-2.015625 -1.875,-2.015625 -0.597656,0 -1.078125,0.2460938 -1.417968,0.6328125 -0.316407,0.3867188 -0.492188,0.9023438 -0.492188,1.4648438 z m 1.769531,-1.78125 c 0.773438,0 1.242188,0.703125 1.242188,1.9921875 0,1.12499999 -0.574219,1.40624999 -0.996094,1.40624999 -0.9375,0 -1.242187,-1.13671879 -1.242187,-1.81640629 0,-0.7851562 0.1875,-1.5820312 0.996093,-1.5820312 z m 4.03711,0.4101562 c -0.05859,0.058594 -0.105469,0.082031 -0.105469,0 -0.01172,-0.2460937 -0.03516,-0.5859375 -0.08203,-0.6796875 -0.01172,-0.046875 -0.03516,-0.070312 -0.105469,-0.070312 -0.246094,0.09375 -0.480469,0.1757813 -1.101562,0.2578125 -0.01172,0.058594 0,0.1992188 0.02344,0.2460938 0.480469,0.046875 0.574219,0.09375 0.574219,0.609375 v 1.7578125 c 0,0.72656249 -0.08203,0.76171874 -0.621094,0.80859374 -0.05859,0.0585938 -0.05859,0.24609375 0,0.3046875 0.269531,-0.01171875 0.621094,-0.0234375025 0.984375,-0.0234375025 0.363281,0 0.632813,0.0117187525 0.902344,0.0234375025 0.04687,-0.05859375 0.04687,-0.24609375 0,-0.3046875 -0.457031,-0.046875 -0.550781,-0.0820313 -0.550781,-0.80859374 v -1.4765625 c 0,-0.1875 0.08203,-0.2929688 0.152343,-0.375 0.339844,-0.328125 0.738282,-0.5273438 1.089844,-0.5273438 0.1875,0 0.375,0.1171875 0.480469,0.3164063 0.08203,0.1875 0.105469,0.421875 0.105469,0.6914062 v 1.3710938 c 0,0.72656249 -0.09375,0.76171874 -0.550782,0.80859374 -0.04687,0.0585938 -0.04687,0.24609375 0,0.3046875 0.257813,-0.01171875 0.550782,-0.0234375025 0.914063,-0.0234375025 0.351562,0 0.679687,0.0117187525 0.949219,0.0234375025 0.03516,-0.05859375 0.03516,-0.24609375 0,-0.3046875 -0.503907,-0.046875 -0.609375,-0.0820313 -0.609375,-0.80859374 v -1.3359375 c 0,-0.4921875 -0.03516,-0.9257813 -0.234375,-1.2070313 -0.152344,-0.1992187 -0.433594,-0.3046875 -0.75,-0.3046875 -0.433594,0 -0.9375,0.1171875 -1.464844,0.7265625 z m 3.641601,1.96875 c 0.03516,0.44531254 0.05859,0.86718754 0.05859,1.2421875375 0.09375,-0.0234374975 0.175781,-0.0234374975 0.222656,-0.0234374975 0.07031,0 0.117188,0 0.175782,0.01171875 0.246093,0.0703125 0.492187,0.10546875 0.820312,0.10546875 0.503906,0 1.429688,-0.24609375 1.429688,-1.13671874 0,-0.609375 -0.445313,-0.9609375 -1.054688,-1.1835938 -0.539062,-0.2109375 -0.890625,-0.3515625 -0.890625,-0.84375 0,-0.3632812 0.316406,-0.5742187 0.621094,-0.5742187 0.199219,0 0.714844,0.082031 0.832031,0.84375 0.05859,0.046875 0.234375,0.035156 0.292969,-0.011719 0.02344,-0.328125 0.04687,-0.65625 0.05859,-0.9492187 -0.28125,-0.046875 -0.714844,-0.1757813 -1.183594,-0.1757813 -0.65625,0 -1.265625,0.4335938 -1.265625,1.0078125 0,0.65625 0.304687,0.9257813 0.996094,1.21875 0.738281,0.3046875 0.914062,0.4921875 0.914062,0.87890629 0,0.43359375 -0.433594,0.62109375 -0.761719,0.62109375 -0.351562,0 -0.550781,-0.1171875 -0.644531,-0.2109375 -0.199219,-0.2109375 -0.292969,-0.59765624 -0.351562,-0.82031254 -0.04687,-0.058594 -0.222657,-0.046875 -0.269532,0 z m 6.418946,-1.2890625 c 0.164062,-1.0078125 0.796875,-1.0898437 1.007812,-1.0898437 0.339844,0 0.75,0.1875 0.75,0.9375 0,0.082031 -0.03516,0.1289062 -0.140625,0.1289062 z m 2.34375,1.69921879 c -0.328125,0.33984375 -0.585938,0.48046875 -1.113282,0.48046875 -0.316406,0 -0.691406,-0.1875 -0.972656,-0.64453125 -0.175781,-0.29296879 -0.28125,-0.70312499 -0.28125,-1.23046879 l 2.378906,0.023437 c 0.105469,0 0.175782,-0.058594 0.175782,-0.1523437 0,-0.75 -0.269532,-1.5585938 -1.523438,-1.5585938 -0.773437,0 -1.792969,0.7382813 -1.792969,2.0976563 0,0.5039062 0.128907,0.99609374 0.421875,1.33593749 0.304688,0.3515625 0.726563,0.57421875 1.371094,0.57421875 0.679688,0 1.171875,-0.31640625 1.523438,-0.78515625 -0.02344,-0.09375 -0.08203,-0.12890625 -0.1875,-0.1406245 z m 2.115234,-2.37890629 c -0.199219,-0.3046875 -0.140625,-0.3164062 0.257813,-0.3515625 0.05859,-0.058594 0.05859,-0.2460937 0,-0.3046875 -0.234375,0.011719 -0.632813,0.023437 -0.902344,0.023437 -0.269531,0 -0.539063,-0.011719 -0.773438,-0.023437 -0.04687,0.058594 -0.04687,0.2460938 0,0.3046875 0.304688,0.023437 0.5625,0.1757813 0.808594,0.5390625 l 0.785156,1.1367188 c 0.04687,0.070312 0.04687,0.09375 0.01172,0.140625 l -0.761719,0.96093749 c -0.351562,0.45703125 -0.550781,0.4921875 -0.867187,0.50390625 -0.05859,0.0585938 -0.05859,0.24609375 0,0.3046875 0.175781,-0.01171875 0.375,-0.0234375025 0.644531,-0.0234375025 0.269531,0 0.527344,0.0117187525 0.75,0.0234375025 0.05859,-0.05859375 0.05859,-0.24609375 0,-0.3046875 -0.316406,-0.0351563 -0.386719,-0.0703125 -0.1875,-0.3515625 l 0.5625,-0.82031254 c 0.07031,-0.1054687 0.105469,-0.09375 0.164063,-0.011719 l 0.515625,0.71484374 c 0.316406,0.421875 0.164062,0.4453125 -0.117188,0.46875 -0.05859,0.0585938 -0.05859,0.24609375 0,0.3046875 0.269531,-0.01171875 0.5625,-0.0234375025 0.890625,-0.0234375025 0.339844,0 0.574219,0.0117187525 0.796875,0.0234375025 0.04687,-0.05859375 0.04687,-0.24609375 0,-0.3046875 -0.410156,-0.0234375 -0.539062,-0.046875 -0.902344,-0.5625 L 52.607977,-1.9809453 c -0.03516,-0.058594 -0.03516,-0.082031 0,-0.140625 l 0.761718,-0.9492188 c 0.328125,-0.421875 0.539063,-0.46875 0.867188,-0.4921875 0.04687,-0.058594 0.04687,-0.2460937 0,-0.3046875 -0.175781,0.011719 -0.386719,0.023437 -0.65625,0.023437 -0.269531,0 -0.515625,-0.011719 -0.75,-0.023437 -0.05859,0.058594 -0.05859,0.2460938 0,0.3046875 0.328125,0.035156 0.433594,0.058594 0.210937,0.3632813 l -0.585937,0.8203125 c -0.05859,0.082031 -0.09375,0.070312 -0.164063,-0.023437 z m 3.878906,0.6796875 c 0.164063,-1.0078125 0.796875,-1.0898437 1.007813,-1.0898437 0.339844,0 0.75,0.1875 0.75,0.9375 0,0.082031 -0.03516,0.1289062 -0.140625,0.1289062 z m 2.34375,1.69921879 c -0.328125,0.33984375 -0.585937,0.48046875 -1.113281,0.48046875 -0.316406,0 -0.691406,-0.1875 -0.972656,-0.64453125 -0.175781,-0.29296879 -0.28125,-0.70312499 -0.28125,-1.23046879 l 2.378906,0.023437 c 0.105469,0 0.175781,-0.058594 0.175781,-0.1523437 0,-0.75 -0.269531,-1.5585938 -1.523437,-1.5585938 -0.773438,0 -1.792969,0.7382813 -1.792969,2.0976563 0,0.5039062 0.128906,0.99609374 0.421875,1.33593749 0.304688,0.3515625 0.726563,0.57421875 1.371094,0.57421875 0.679687,0 1.171875,-0.31640625 1.523437,-0.78515625 -0.02344,-0.09375 -0.08203,-0.12890625 -0.1875,-0.1406245 z m 4.177735,0.0117188 c -0.03516,-0.0703125 -0.105469,-0.1171875 -0.1875,-0.1171875 -0.304688,0.38671875 -0.691407,0.5859375 -1.066407,0.5859375 -0.65625,0 -1.207031,-0.65625009 -1.207031,-1.71093759 0,-0.984375 0.433594,-1.5820312 1.019531,-1.5820312 0.527344,0 0.609375,0.3164062 0.644532,0.6328125 0.02344,0.2460937 0.152343,0.328125 0.339843,0.328125 0.1875,0 0.433594,-0.1171875 0.433594,-0.3984375 0,-0.4921875 -0.503906,-0.8554688 -1.371094,-0.8554688 -0.890625,0 -1.839843,0.796875 -1.839843,2.0742188 0,1.16015629 0.644531,1.95703129 1.78125,1.95703129 0.539062,0 1.007812,-0.17578125 1.453125,-0.9140625 z m 2.220703,0.9140625 c 0.351562,0 0.773437,-0.1875 1.207031,-0.5390625 0.04687,-0.0351563 0.128906,-0.0585937 0.140625,0.0117188 0.02344,0.22265625 0.09375,0.52734375 0.09375,0.52734375 0.07031,0.0234375 0.117188,0.01171875 0.175781,0 0.199219,-0.1640625 0.503907,-0.3046875 1.054688,-0.36328125 0.05859,-0.0585938 0.05859,-0.1875 0,-0.24609375 -0.574219,-0.0351563 -0.65625,-0.2109375 -0.65625,-0.64453124 V -2.883289 c 0,-0.2695312 0.03516,-0.9257812 0.03516,-0.9257812 0,-0.023437 -0.02344,-0.058594 -0.07031,-0.058594 -0.04687,0.011719 -0.175782,0.023437 -0.316407,0.023437 -0.28125,0 -0.609375,-0.011719 -0.914062,-0.023437 -0.04687,0.058594 -0.04687,0.2460938 0,0.3046875 0.445312,0.023437 0.5625,0.1289063 0.5625,0.7148438 v 1.734375 c 0,0.17578124 -0.02344,0.24609374 -0.152344,0.35156249 -0.328125,0.28125 -0.667969,0.43359375 -0.890625,0.43359375 -0.269531,0 -0.714844,-0.12890625 -0.714844,-0.92578124 v -1.6289063 c 0,-0.2695312 0.03516,-0.9257812 0.03516,-0.9257812 0,-0.023437 -0.02344,-0.058594 -0.07031,-0.058594 -0.04687,0.011719 -0.1875,0.023437 -0.316406,0.023437 -0.292969,0 -0.609375,-0.011719 -0.914063,-0.023437 -0.05859,0.058594 -0.05859,0.2460938 0,0.3046875 0.433594,0.035156 0.550782,0.1289063 0.550782,0.7148438 v 1.7226562 c 0,0.60937504 0.269531,1.21875004 1.160156,1.21875004 z m 3.202148,-3.93750009 c -0.128906,0 -0.164062,0.1054688 -0.164062,0.1757813 v 0.1171875 c 0,0.046875 0.01172,0.058594 0.04687,0.058594 h 0.527343 v 2.69531259 c 0,0.6328125 0.28125,0.890625 0.691407,0.890625 0.410156,0 0.855468,-0.19921875 1.207031,-0.59765625 -0.01172,-0.0820313 -0.07031,-0.140625 -0.164063,-0.15234375 -0.222656,0.17578125 -0.492187,0.2578125 -0.726562,0.2578125 -0.246094,0 -0.292969,-0.26953125 -0.292969,-0.83203129 v -2.2617188 h 0.925781 c 0.09375,0 0.210938,-0.035156 0.210938,-0.1171875 v -0.1875 c 0,-0.035156 -0.02344,-0.046875 -0.07031,-0.046875 h -1.066406 v -0.3515625 c 0,-0.5859375 0.03516,-0.9375 0.03516,-0.9375 0,-0.058594 -0.03516,-0.082031 -0.08203,-0.082031 -0.03516,0 -0.105469,0.035156 -0.1875,0.082031 -0.105469,0.046875 -0.1875,0.09375 -0.304687,0.1171875 -0.117188,0.035156 -0.199219,0.070312 -0.199219,0.1289063 0,0.1054687 0.02344,0.046875 0.02344,1.0429687 z m 3.559571,1.3125 c 0.164062,-1.0078125 0.796875,-1.0898437 1.007812,-1.0898437 0.339844,0 0.75,0.1875 0.75,0.9375 0,0.082031 -0.03516,0.1289062 -0.140625,0.1289062 z m 2.34375,1.69921884 c -0.328125,0.33984375 -0.585938,0.48046875 -1.113282,0.48046875 -0.316406,0 -0.691406,-0.1875 -0.972656,-0.64453125 -0.175781,-0.29296884 -0.28125,-0.70312504 -0.28125,-1.23046884 l 2.378906,0.023437 c 0.105469,0 0.175782,-0.058594 0.175782,-0.1523437 0,-0.75 -0.269532,-1.5585938 -1.523438,-1.5585938 -0.773437,0 -1.792969,0.7382813 -1.792969,2.0976563 0,0.5039062 0.128907,0.99609379 0.421875,1.33593754 0.304688,0.3515625 0.726563,0.57421875 1.371094,0.57421875 0.679688,0 1.171875,-0.31640625 1.523438,-0.78515625 -0.02344,-0.09375 -0.08203,-0.12890625 -0.1875,-0.1406245 z m 3.706054,-0.28125004 c 0,0.17578129 -0.02344,0.24609379 -0.140625,0.35156254 -0.339844,0.28125 -0.621094,0.43359375 -0.84375,0.43359375 -0.492187,0 -0.984375,-0.52734375 -0.984375,-1.65234379 0,-0.6445313 0.117188,-1.0078125 0.257813,-1.1953125 0.28125,-0.421875 0.65625,-0.4453125 0.832031,-0.4453125 0.316406,0 0.550781,0.1171875 0.726562,0.3164062 0.128907,0.1523438 0.152344,0.2109375 0.152344,0.4921875 z m -0.09375,0.66796879 c 0.03516,-0.0351563 0.117188,-0.0585937 0.128906,0.0117188 0.02344,0.2109375 0.09375,0.52734375 0.09375,0.52734375 0.08203,0.0234375 0.117188,0.01171875 0.175782,0 0.199218,-0.1640625 0.515625,-0.3046875 1.054687,-0.36328125 0.05859,-0.0585938 0.05859,-0.1875 0,-0.24609375 -0.574219,-0.0351563 -0.65625,-0.2109375 -0.65625,-0.64453124 V -5.227039 c 0,-0.5859375 0.03516,-0.9375 0.03516,-0.9375 0,-0.070312 -0.03516,-0.09375 -0.117187,-0.09375 -0.222656,0.09375 -0.890625,0.2109375 -1.253906,0.2460938 -0.01172,0.070312 0,0.2109375 0.05859,0.2695312 0.46875,0.023437 0.574219,-0.023437 0.574219,0.7265625 v 1.1484375 c 0,0.070312 -0.02344,0.082031 -0.08203,0.082031 -0.03516,0 -0.398438,-0.1523438 -0.703125,-0.1523438 -0.585938,0 -0.984375,0.1992188 -1.335938,0.5390625 -0.386718,0.3867188 -0.621093,0.9140625 -0.621093,1.5820313 0,1.10156249 0.550781,1.91015624 1.523437,1.91015624 0.351563,0 0.679688,-0.1875 1.125,-0.5390625 z m 0,0"
       style="fill:#000000;fill-opacity:1;fill-rule:nonzero;stroke:none"
       aria-label="Instructionsexecuted"
       transform="matrix(1.3333333,0,0,1.3333333,410.024,378.58267)" />
    <path
       id="path170"
       d="m 166.62181,-3e-5 22.66369,-0.0014"
       style="fill:none;stroke:#666666;stroke-width:0.3985;stroke-linecap:butt;stroke-linejoin:miter;stroke-miterlimit:10;stroke-dasharray:0.3985, 1.99255;stroke-dashoffset:0;stroke-opacity:1"
       transform="matrix(1.3333333,0,0,-1.3333333,99.642667,349.276)" />
    <path
       id="path171"
       d="m 165.97424,32.1312 23.0036,109.33134"
       style="fill:none;stroke:#666666;stroke-width:0.3985;stroke-linecap:butt;stroke-linejoin:miter;stroke-miterlimit:10;stroke-dasharray:0.3985, 1.99255;stroke-dashoffset:0;stroke-opacity:1"
       transform="matrix(1.3333333,0,0,-1.3333333,99.642667,349.276)" />
  </g>
</svg>
