<?xml version="1.0" encoding="UTF-8" standalone="no"?>
<!DOCTYPE svg PUBLIC "-//W3C//DTD SVG 1.1//EN" "http://www.w3.org/Graphics/SVG/1.1/DTD/svg11.dtd">
<svg width="100%" height="100%" viewBox="0 0 512 512" version="1.1" xmlns="http://www.w3.org/2000/svg" xmlns:xlink="http://www.w3.org/1999/xlink" xml:space="preserve" xmlns:serif="http://www.serif.com/" style="fill-rule:evenodd;clip-rule:evenodd;stroke-linecap:round;stroke-linejoin:round;stroke-miterlimit:1.5;">
    <g>
        <path d="M278.624,392.703C276.722,432.619 327.695,475.887 372.112,417.001C404.421,414.141 418.607,386.905 408.317,355.532C443.574,351.031 449.667,311.811 428.181,290.193C445.216,272.94 448.067,244.066 425.145,219.134C434.238,188.04 410.066,167.402 385.08,165.602C401.33,139.444 381.862,115.121 360.714,111.504C336.6,86.571 288.063,72.296 279.137,103.894L278.624,392.703Z" style="fill:rgb(239,49,76);stroke:black;stroke-width:13.33px;"/>
        <path d="M301.092,87.063C336.473,107.372 383.808,125.439 366.297,160.895C363.888,156.293 416.442,181.103 403.646,222.414C420.535,231.062 430.211,264.949 407.569,290.587C417.399,294.506 437.044,340.599 389.215,356.073C394.417,376.263 393.236,406.544 351.384,416.012C347.616,423.798 337.273,437.087 318.715,444.736C338.633,445.586 353.989,441.028 372.112,417.001C404.421,414.141 418.607,386.905 408.317,355.532C443.574,351.031 449.667,311.811 428.181,290.193C445.216,272.94 448.067,244.066 425.145,219.134C434.238,188.04 410.066,167.402 385.08,165.602C401.33,139.444 381.862,115.121 360.714,111.504C345.334,95.601 319.728,85.157 301.092,87.063Z" style="fill:rgb(0,55,70);fill-opacity:0.16;"/>
        <path d="M359.526,110.862C335.412,85.929 288.063,72.296 279.137,103.894L278.624,392.703" style="fill:none;stroke:black;stroke-width:13.33px;"/>
        <path d="M352.139,252.646C356.68,269.621 364.55,280.364 383.58,281.969" style="fill:none;stroke:black;stroke-width:13.33px;"/>
        <path d="M326.676,348.827C225.888,365.503 305.895,504.788 372.112,417.001C404.421,414.141 418.607,386.905 408.317,355.532C443.574,351.031 450.655,312.775 429.168,291.157" style="fill:none;stroke:black;stroke-width:13.33px;"/>
        <path d="M338.598,209.094C343.886,139.558 442.15,160.985 425.145,219.134C459.487,256.488 435.979,302.688 393.588,305.403" style="fill:none;stroke:black;stroke-width:13.33px;"/>
        <path d="M323.984,146.16C331.067,80.902 413.676,118.503 384.918,164.793" style="fill:none;stroke:black;stroke-width:13.33px;"/>
        <path d="M315.334,238.316C344.929,268.466 395.208,248.183 397.317,204.885" style="fill:none;stroke:black;stroke-width:13.33px;"/>
        <path d="M338.241,409.736C339.867,381.274 354.027,365.665 382.449,364.679" style="fill:none;stroke:black;stroke-width:13.33px;"/>
        <path d="M324.13,312.536C346.35,308.958 373.46,336.515 366.968,366.476" style="fill:none;stroke:black;stroke-width:13.33px;"/>
        <path d="M301.832,201.272C286.808,201.071 279.22,211.5 279.336,231.334" style="fill:none;stroke:black;stroke-width:13.33px;"/>
        <g transform="matrix(0.770628,0,0,0.770628,98.0164,103.196)">
            <circle cx="464.398" cy="406.929" r="18.694" style="fill:rgb(254,255,0);stroke:black;stroke-width:17.3px;"/>
        </g>
        <path d="M412.149,381.55L438.551,381.447C448.149,381.646 454.246,384.923 455.411,392.38L455.73,402.532" style="fill:none;stroke:black;stroke-width:13.33px;"/>
        <g transform="matrix(0.770628,0,0,0.770628,62.1913,-243.28)">
            <circle cx="464.398" cy="406.929" r="18.694" style="fill:rgb(254,255,0);stroke:black;stroke-width:17.3px;"/>
        </g>
        <path d="M366.517,112.725L404.866,113.178C411.662,112.236 419.584,108.254 419.796,99.715L419.433,85.136" style="fill:none;stroke:black;stroke-width:13.33px;"/>
        <g transform="matrix(0.770628,0,0,0.770628,62.7611,138.468)">
            <circle cx="464.398" cy="406.929" r="18.694" style="fill:rgb(254,255,0);stroke:black;stroke-width:17.3px;"/>
        </g>
        <path d="M395.017,410.064L406.392,409.842C416.123,409.93 419.361,416.454 419.956,423.905L420.687,436.613" style="fill:none;stroke:black;stroke-width:13.33px;"/>
        <g transform="matrix(0.770628,0,0,0.770628,98.2668,-207.774)">
            <circle cx="464.398" cy="406.929" r="18.694" style="fill:rgb(254,255,0);stroke:black;stroke-width:17.3px;"/>
        </g>
        <path d="M391.933,140.81L439.899,140.997C446.013,141.69 455.556,141.495 456.018,132.014L455.396,120.915" style="fill:none;stroke:black;stroke-width:13.33px;"/>
    </g>
    <g>
        <path d="M251.553,84.771L84.127,83.988C69.195,86.986 60.116,93.728 60.509,108.406L60.593,412.577C60.34,428.931 68.001,438.171 85.824,438.273L251.238,437.76L251.553,84.771Z" style="fill:white;stroke:black;stroke-width:13.33px;"/>
        <g transform="matrix(0.766021,0,0,6.42749,58.5769,-470.051)">
            <rect x="227.487" y="86.913" width="23.455" height="54.458" style="fill:rgb(0,55,70);fill-opacity:0.16;"/>
        </g>
        <path d="M251.553,84.771L84.127,83.988C69.195,86.986 60.116,93.728 60.509,108.406L60.593,412.577C60.34,428.931 68.001,438.171 85.824,438.273L251.238,437.76L251.553,84.771Z" style="fill:none;stroke:black;stroke-width:13.33px;"/>
    </g>
    <g>
        <path d="M86.942,156.371L116.463,133.959L86.645,111.188" style="fill:none;stroke:black;stroke-width:13.33px;"/>
        <path d="M88.875,197.702L110.657,197.411" style="fill:none;stroke:black;stroke-width:13.33px;"/>
        <g transform="matrix(1,0,0,1,0.53051,28.4469)">
            <path d="M88.875,197.702L110.657,197.411" style="fill:none;stroke:black;stroke-width:13.33px;"/>
        </g>
        <g transform="matrix(1,0,0,1,0.54372,57.0919)">
            <path d="M88.875,197.702L110.657,197.411" style="fill:none;stroke:black;stroke-width:13.33px;"/>
        </g>
        <g transform="matrix(1,0,0,1,-0.0537373,85.4214)">
            <path d="M88.875,197.702L110.657,197.411" style="fill:none;stroke:black;stroke-width:13.33px;"/>
        </g>
        <g transform="matrix(1,0,0,1,0.528165,113.215)">
            <path d="M88.875,197.702L110.657,197.411" style="fill:none;stroke:black;stroke-width:13.33px;"/>
        </g>
        <g transform="matrix(1,0,0,1,0.522419,141.292)">
            <path d="M88.875,197.702L110.657,197.411" style="fill:none;stroke:black;stroke-width:13.33px;"/>
        </g>
        <g transform="matrix(1,0,0,1,0.219258,169.992)">
            <path d="M88.875,197.702L110.657,197.411" style="fill:none;stroke:black;stroke-width:13.33px;"/>
        </g>
        <g transform="matrix(1,0,0,1,0.378076,197.881)">
            <path d="M88.875,197.702L110.657,197.411" style="fill:none;stroke:black;stroke-width:13.33px;"/>
        </g>
        <path d="M138.095,197.722L223.073,197.687" style="fill:none;stroke:black;stroke-width:13.33px;"/>
        <g transform="matrix(1,0,0,1,0.505194,169.293)">
            <path d="M138.095,197.722L223.073,197.687" style="fill:none;stroke:black;stroke-width:13.33px;"/>
        </g>
        <g transform="matrix(1,0,0,1,0.183525,113.102)">
            <path d="M138.095,197.722L223.073,197.687" style="fill:none;stroke:black;stroke-width:13.33px;"/>
        </g>
        <g transform="matrix(1,0,0,1,-0.582152,56.6455)">
            <path d="M138.095,197.722L223.073,197.687" style="fill:none;stroke:black;stroke-width:13.33px;"/>
        </g>
        <g transform="matrix(1,0,0,1,0.692667,0.797821)">
            <path d="M152.211,225.151L208.479,225.439" style="fill:none;stroke:black;stroke-width:13.33px;"/>
        </g>
        <g transform="matrix(1,0,0,1,0.536476,56.9586)">
            <path d="M152.211,225.151L208.479,225.439" style="fill:none;stroke:black;stroke-width:13.33px;"/>
        </g>
        <g transform="matrix(1,0,0,1,0.380286,113.119)">
            <path d="M152.211,225.151L208.479,225.439" style="fill:none;stroke:black;stroke-width:13.33px;"/>
        </g>
        <g transform="matrix(1,0,0,1,0.224096,169.28)">
            <path d="M152.211,225.151L208.479,225.439" style="fill:none;stroke:black;stroke-width:13.33px;"/>
        </g>
        <path d="M145.926,155.386L173.014,154.708" style="fill:none;stroke:black;stroke-width:13.33px;"/>
    </g>
    <path d="M251.302,450.565C252.262,470.64 276.087,472.389 278.967,453.263L278.437,71.196C278.579,53.09 250.706,51.871 251.365,70.412L251.302,450.565Z" style="fill:rgb(2,169,244);stroke:black;stroke-width:13.33px;"/>
</svg>
