<?xml version="1.0" encoding="UTF-8" standalone="no"?>
<!-- Created with Inkscape (http://www.inkscape.org/) -->

<svg
   version="1.1"
   id="svg1"
   width="121.80859"
   height="12.089397"
   viewBox="0 0 121.80859 12.089397"
   sodipodi:docname="snapshotdef.svg"
   inkscape:version="1.4.2 (2aeb623e1d, 2025-05-12)"
   xmlns:inkscape="http://www.inkscape.org/namespaces/inkscape"
   xmlns:sodipodi="http://sodipodi.sourceforge.net/DTD/sodipodi-0.dtd"
   xmlns="http://www.w3.org/2000/svg"
   xmlns:svg="http://www.w3.org/2000/svg">
  <defs
     id="defs1" />
  <sodipodi:namedview
     id="namedview1"
     pagecolor="#505050"
     bordercolor="#eeeeee"
     borderopacity="1"
     inkscape:showpageshadow="0"
     inkscape:pageopacity="0"
     inkscape:pagecheckerboard="0"
     inkscape:deskcolor="#505050"
     inkscape:zoom="4.1442624"
     inkscape:cx="46.691059"
     inkscape:cy="11.823576"
     inkscape:window-width="1920"
     inkscape:window-height="1005"
     inkscape:window-x="0"
     inkscape:window-y="0"
     inkscape:window-maximized="1"
     inkscape:current-layer="g1">
    <inkscape:page
       x="7.8094226e-06"
       y="1.2336765e-05"
       inkscape:label="9"
       id="page1"
       width="121.80859"
       height="12.089397"
       margin="0"
       bleed="0" />
  </sodipodi:namedview>
  <g
     id="g1"
     inkscape:groupmode="layer"
     inkscape:label="9"
     transform="translate(-253.66795,-346.50827)">
    <path
       id="path139"
       d="m 281.57608,347.68628 c -0.67188,-0.10938 -0.59375,-0.42188 -1.78125,-0.42188 -1.10938,0 -2.5625,0.75 -2.84375,2.15625 -0.0156,0.15625 -0.0313,0.3125 -0.0313,0.4375 0,1.1875 1.01563,1.8125 1.95313,2.28125 0.60937,0.29688 1.09375,0.71875 1.09375,1.51563 0,0.15625 -0.0156,0.3125 -0.0469,0.5 -0.21875,1.07812 -0.85938,1.5 -1.82813,1.5 -1.14062,0 -1.79687,-0.5625 -1.8125,-1.89063 l -0.40625,0.0469 c -0.0312,1 -0.0625,1.4375 -0.17187,2.125 0.78125,0 1.10937,0.20313 2.1875,0.20313 1.46875,0 2.875,-1.09375 3.14062,-2.45313 0.0469,-0.17187 0.0625,-0.34375 0.0625,-0.5 0,-1.17187 -0.92188,-1.76562 -1.8125,-2.1875 -0.4375,-0.1875 -1.40625,-0.75 -1.40625,-1.67187 0,-0.0781 0.0156,-0.17188 0.0312,-0.26563 0.15625,-0.8125 0.84375,-1.34375 1.6875,-1.34375 1.21875,0 1.39062,0.78125 1.46875,1.65625 l 0.40625,0.0313 c 0,-0.64063 0.0781,-1 0.10937,-1.71876 z m 0,0"
       style="fill:#000000;fill-opacity:1;fill-rule:nonzero;stroke:none;stroke-width:1.33333" />
    <path
       id="path140"
       d="m 285.82608,356.78784 0.4375,-1.54688 c 0.0937,-0.32812 0.14062,-0.5625 0.14062,-0.73437 0,-0.57813 -0.28125,-0.78125 -0.6875,-0.78125 -0.5625,0 -1.01562,0.20312 -2.01562,1.25 l 0.0156,-0.0937 c 0.10938,-0.375 0.23438,-0.75 0.23438,-0.92187 0,-0.125 -0.0781,-0.20313 -0.21875,-0.20313 -0.35938,0 -0.875,0.0781 -1.39063,0.125 -0.0781,0.0781 -0.0469,0.1875 0.0156,0.28125 l 0.42187,0.0313 c 0.125,0 0.17188,0.0937 0.17188,0.1875 0,0.0937 -0.0156,0.21874 -0.0937,0.5 l -0.59375,2.40624 c -0.0469,0.20313 -0.14062,0.4375 -0.14062,0.53126 0,0.17187 0.125,0.26562 0.48437,0.26562 0.42188,0 0.40625,-0.42188 0.51563,-0.79688 l 0.39062,-1.60937 c 0.67188,-0.79687 1.26563,-1.35937 1.64063,-1.35937 0.23437,0 0.35937,0.0469 0.35937,0.34374 0,0.14063 -0.0312,0.32813 -0.14062,0.65626 l -0.42188,1.5625 c -0.10937,0.29687 -0.20312,0.70312 -0.20312,0.89062 0,0.1875 0.125,0.3125 0.45312,0.3125 0.59375,0 1.07813,-0.32812 1.59375,-0.90625 -0.0312,-0.0781 -0.10937,-0.15625 -0.25,-0.15625 -0.28125,0.29688 -0.60937,0.48438 -0.71875,0.48438 -0.0781,0 -0.125,-0.0469 -0.125,-0.17188 0,-0.0781 0.0625,-0.29688 0.125,-0.54688 z m 0,0"
       style="fill:#000000;fill-opacity:1;fill-rule:nonzero;stroke:none;stroke-width:1.33333" />
    <path
       id="path141"
       d="m 308.12685,351.60815 v -0.73437 h -6.79686 v 0.73437 z m 0,2.70313 v -0.75 h -6.79686 v 0.75 z m -7.875,-4.09375 c 0,-0.40625 -0.34374,-0.75 -0.73437,-0.75 -0.40625,0 -0.73437,0.32812 -0.73437,0.75 0,0.51562 0.45312,0.71875 0.73437,0.71875 0.28125,0 0.73437,-0.21875 0.73437,-0.71875 z m -2.54686,0 c 0,-0.40625 -0.34376,-0.75 -0.73438,-0.75 -0.40625,0 -0.73438,0.32812 -0.73438,0.75 0,0.51562 0.45313,0.71875 0.73438,0.71875 0.26562,0 0.73438,-0.21875 0.73438,-0.71875 z m 2.54686,4.76562 c 0,-0.40625 -0.34374,-0.75 -0.73437,-0.75 -0.40625,0 -0.73437,0.32813 -0.73437,0.75 0,0.51563 0.45312,0.71875 0.73437,0.71875 0.28125,0 0.73437,-0.21875 0.73437,-0.71875 z m -2.54686,0 c 0,-0.40625 -0.34376,-0.75 -0.73438,-0.75 -0.40625,0 -0.73438,0.32813 -0.73438,0.75 0,0.51563 0.45313,0.71875 0.73438,0.71875 0.26562,0 0.73438,-0.21875 0.73438,-0.71875 z m 0,0"
       style="fill:#000000;fill-opacity:1;fill-rule:nonzero;stroke:none;stroke-width:1.33333" />
    <path
       id="path142"
       d="m 316.20889,348.54565 c 0,-0.48437 0.40624,-1.46875 1.46875,-1.73437 0.0625,-0.0313 0.12493,-0.0625 0.12493,-0.14063 0,-0.125 -0.10933,-0.15625 -0.26563,-0.125 -1.03125,0.15625 -2.26562,1 -2.28125,1.89063 v 2.375 c 0,0.45312 -0.0781,1.125 -0.26563,1.25 -0.46874,0.32812 -0.96874,0.34375 -1.26562,0.34375 -0.0625,0.0156 -0.10934,0.0937 -0.10934,0.17187 0,0.125 0.0781,0.15625 0.20314,0.17188 0.89062,0.0312 1.25,0.45312 1.40624,1.04687 0.0312,0.125 0.0312,0.14063 0.0312,0.57813 v 2.125 c 0,0.51562 -0.12494,1.10937 0.51562,1.5625 0.51563,0.35937 1.25,0.5625 1.76563,0.5625 0.15625,0 0.26563,0 0.26563,-0.14063 0,-0.125 -0.0937,-0.0937 -0.21875,-0.14062 -0.89063,-0.21875 -1.15625,-0.6875 -1.32813,-1.3125 -0.0469,-0.0937 -0.0469,-0.125 -0.0469,-0.54688 v -2.29687 c 0,-0.53125 -0.0937,-0.75 -0.53125,-1.14063 -0.26563,-0.25 -0.39063,-0.375 -0.76563,-0.46875 1.09375,-0.26562 1.29688,-0.82812 1.29688,-1.53125 z m 0,0"
       style="fill:#000000;fill-opacity:1;fill-rule:nonzero;stroke:none;stroke-width:1.33333" />
    <path
       id="path143"
       d="m 325.32998,348.43628 -1.28125,6.54687 c -0.0781,0.375 -0.28125,0.5625 -0.82812,0.60938 l -0.40625,0.0469 c -0.0625,0.0469 -0.0937,0.26562 -0.0312,0.39062 0.59374,-0.0156 1.07812,-0.0312 1.59374,-0.0312 0.5,0 1.09376,0.0156 1.68751,0.0312 0.0312,-0.0625 0.0781,-0.32812 0.0312,-0.39062 l -0.45313,-0.0469 c -0.51563,-0.0313 -0.65626,-0.20313 -0.57812,-0.60938 l 0.64062,-3.26562 -0.0312,0.17187 c 0.45312,0 0.78126,0.15625 0.98438,0.51563 l 1.5625,2.625 c 0.0937,0.17187 0.14062,0.34375 0.14062,0.5 0,0.15625 -0.0312,0.28125 -0.0625,0.39062 v 0.10937 c 0.26563,-0.0156 0.53126,-0.0312 0.90626,-0.0312 0.5,0 0.71874,0.0156 1.31249,0.0312 l 0.0625,-0.0312 0.0312,-0.25 c 0.0156,-0.0625 -0.0312,-0.0937 -0.0937,-0.10937 l -0.0781,-0.0156 c -0.35938,-0.0469 -0.625,-0.1875 -0.875,-0.59375 l -2.125,-3.45312 c -0.0937,-0.14063 -0.10934,-0.23438 -0.0937,-0.32813 0.0312,-0.0937 0.0937,-0.1875 0.60938,-0.65625 l 2.17186,-2 c 0.71876,-0.65625 1.21876,-0.73437 1.75,-0.79687 0.0625,0 0.14063,-0.0469 0.15626,-0.10938 l 0.0625,-0.25 -0.0469,-0.0312 c -0.59375,0.0156 -0.73438,0.0312 -1.25,0.0312 -0.51563,0 -0.875,-0.0156 -1.46875,-0.0312 l -0.0469,0.0312 -0.0312,0.25 c -0.0156,0.0625 0.0312,0.10938 0.0781,0.10938 l 0.25,0.0156 c 0.21875,0.0313 0.31249,0.0937 0.31249,0.1875 0,0.125 -0.15625,0.3125 -0.39062,0.53125 l -2.60938,2.34375 c -0.31249,0.29688 -0.625,0.48438 -1.125,0.51563 l 0.59375,-2.95313 c 0.0781,-0.35937 0.26563,-0.54687 0.81251,-0.60937 l 0.42188,-0.0313 c 0.0469,-0.0625 0.0781,-0.26562 0.0156,-0.39062 -0.59375,0.0156 -1.07812,0.0312 -1.59375,0.0312 -0.5,0 -1.09375,-0.0156 -1.68749,-0.0312 -0.0312,0.0469 -0.0781,0.3125 -0.0312,0.39062 l 0.45312,0.0313 c 0.51562,0.0469 0.65625,0.21875 0.57813,0.60937 z m 0,0"
       style="fill:#000000;fill-opacity:1;fill-rule:nonzero;stroke:none;stroke-width:1.33333" />
    <path
       id="path144"
       d="m 332.32608,354.88159 -0.60938,2.40625 c -0.0469,0.20312 -0.12493,0.4375 -0.12493,0.53125 0,0.17187 0.0937,0.26562 0.45312,0.26562 0.40625,0 0.39063,-0.42187 0.51563,-0.79687 l 0.375,-1.5625 c 0.84374,-1.09375 1.45312,-1.40625 1.79686,-1.40625 0.20314,0 0.28126,0.0625 0.28126,0.35937 0,0.10938 -0.0312,0.34375 -0.10934,0.64063 l -0.5,1.96875 c -0.0469,0.20312 -0.14062,0.4375 -0.14062,0.53125 0,0.17187 0.0937,0.26562 0.45313,0.26562 0.42187,0 0.40624,-0.42187 0.51561,-0.79687 l 0.39063,-1.51563 c 0.90625,-1.15625 1.31251,-1.45312 1.64063,-1.45312 0.20313,0 0.3125,0.0625 0.3125,0.35937 0,0.0937 -0.0469,0.375 -0.10933,0.6875 l -0.42188,1.51563 c -0.12493,0.40625 -0.21875,0.79687 -0.21875,0.89062 0,0.1875 0.20312,0.3125 0.35938,0.3125 0.71874,0 1.28125,-0.28125 1.65625,-1.07812 -0.0156,-0.0781 -0.0937,-0.125 -0.23439,-0.125 -0.26561,0.35937 -0.57812,0.625 -0.78124,0.625 -0.0469,0 -0.0781,-0.0625 -0.0781,-0.10937 0,-0.0313 0.0156,-0.28125 0.0469,-0.39063 l 0.53126,-1.71875 c 0.0625,-0.23437 0.12493,-0.53125 0.12493,-0.71875 0,-0.60937 -0.32813,-0.84375 -0.65625,-0.84375 -0.75,0 -1.34375,0.59375 -1.95312,1.3125 0.0156,-0.15625 0.0468,-0.34375 0.0468,-0.46875 0,-0.67187 -0.32812,-0.84375 -0.64063,-0.84375 -0.76563,0 -1.45312,0.51563 -2.09375,1.25 h -0.0156 l 0.0156,-0.0937 c 0.10934,-0.375 0.23438,-0.75 0.23438,-0.92188 0,-0.125 -0.0781,-0.20312 -0.21875,-0.20312 -0.35937,0 -0.82812,0.0781 -1.34375,0.125 -0.0937,0.0781 -0.0469,0.1875 0.0156,0.28124 l 0.40624,0.0313 c 0.12494,0 0.18751,0.0937 0.18751,0.1875 0,0.0937 -0.0312,0.21875 -0.10933,0.5 z m 0,0"
       style="fill:#000000;fill-opacity:1;fill-rule:nonzero;stroke:none;stroke-width:1.33333" />
    <path
       id="path145"
       d="m 346.79092,354.73315 c -0.40626,0 -0.70312,0.28125 -0.70312,0.65625 0,0.42188 0.34374,0.54688 0.59374,0.57813 0.25,0.0312 0.46875,0.10937 0.46875,0.42187 0,0.28125 -0.46875,0.89063 -1.15625,1.0625 0,0.125 0.0156,0.21875 0.10933,0.3125 0.79688,-0.14062 1.57813,-0.78125 1.57813,-1.71875 0,-0.79687 -0.35937,-1.3125 -0.89062,-1.3125 z m 6.30469,-2.51562 0.10933,-0.46875 c 0.10934,-0.51563 0.21875,-0.98438 0.21875,-1.20313 0,-0.20312 -0.10933,-0.34375 -0.28125,-0.34375 -0.42187,0 -0.96875,0.0937 -1.59375,0.17188 -0.0937,0.10937 -0.0625,0.26562 0.0156,0.375 l 0.53125,0.0469 c 0.15624,0.0156 0.23438,0.125 0.23438,0.26562 0,0.10938 0,0.29688 -0.0937,0.67188 l -0.71874,3.3125 c -0.0781,0.28125 -0.17187,0.51562 -0.17187,0.73437 0,0.21875 0.10933,0.35938 0.5,0.35938 0.46875,0 0.48437,-0.57813 0.60937,-1.09375 l 0.39063,-1.5625 c 0.64061,-1.15625 1.375,-2.39063 1.68749,-2.39063 0.12494,0 0.18751,0.0781 0.28126,0.17188 0.0781,0.0937 0.26562,0.26562 0.43749,0.26562 0.35937,0 0.60937,-0.375 0.60937,-0.73437 0,-0.28125 -0.20312,-0.625 -0.70312,-0.625 -0.65625,0 -1.42188,0.82812 -2.01562,2.0625 z m 0,0"
       style="fill:#000000;fill-opacity:1;fill-rule:nonzero;stroke:none;stroke-width:1.33333" />
    <path
       id="path146"
       d="m 360.90029,348.54565 v 2.5 c 0,0.70313 0.21875,1.26563 1.29688,1.53125 -0.375,0.0937 -0.48437,0.21875 -0.76563,0.46875 -0.42188,0.39063 -0.53125,0.60938 -0.53125,1.14063 v 2.29687 c 0,0.42188 0,0.45313 -0.0469,0.54688 -0.17187,0.625 -0.4375,1.09375 -1.32812,1.3125 -0.12494,0.0469 -0.20312,0.0156 -0.20312,0.14062 0,0.14063 0.10933,0.14063 0.25,0.14063 0.51562,0 1.26562,-0.20313 1.78124,-0.5625 0.64062,-0.45313 0.5,-1.04688 0.5,-1.5625 v -2.125 c 0,-0.4375 0,-0.45313 0.0469,-0.57813 0.14063,-0.59375 0.51563,-1.01562 1.39063,-1.04687 0.12493,-0.0156 0.21874,-0.0469 0.21874,-0.17188 0,-0.0781 -0.0625,-0.15625 -0.12493,-0.17187 -0.29687,0 -0.78125,-0.0156 -1.26563,-0.34375 -0.18749,-0.125 -0.26562,-0.79688 -0.26562,-1.25 v -2.375 c -0.0156,-0.89063 -1.25,-1.73438 -2.28124,-1.89063 -0.14063,-0.0312 -0.25,0 -0.25,0.125 0,0.0781 0.0469,0.10937 0.10933,0.14063 1.06249,0.26562 1.46875,1.25 1.46875,1.73437 z m 0,0"
       style="fill:#000000;fill-opacity:1;fill-rule:nonzero;stroke:none;stroke-width:1.33333" />
  </g>
</svg>
